<svg version="1.1" xmlns="http://www.w3.org/2000/svg" xmlns:xlink="http://www.w3.org/1999/xlink" width="255.47900390625" height="981"><defs/><g><text fill="#eeeeee" stroke="none" font-family="Arial" font-size="24px" font-style="normal" font-weight="normal" text-decoration="none" x="0" y="0">UNREGISTERED</text><text fill="#eeeeee" stroke="none" font-family="Arial" font-size="24px" font-style="normal" font-weight="normal" text-decoration="none" x="0" y="30">UNREGISTERED</text><text fill="#eeeeee" stroke="none" font-family="Arial" font-size="24px" font-style="normal" font-weight="normal" text-decoration="none" x="0" y="60">UNREGISTERED</text><text fill="#eeeeee" stroke="none" font-family="Arial" font-size="24px" font-style="normal" font-weight="normal" text-decoration="none" x="0" y="90">UNREGISTERED</text><text fill="#eeeeee" stroke="none" font-family="Arial" font-size="24px" font-style="normal" font-weight="normal" text-decoration="none" x="0" y="120">UNREGISTERED</text><text fill="#eeeeee" stroke="none" font-family="Arial" font-size="24px" font-style="normal" font-weight="normal" text-decoration="none" x="0" y="150">UNREGISTERED</text><text fill="#eeeeee" stroke="none" font-family="Arial" font-size="24px" font-style="normal" font-weight="normal" text-decoration="none" x="0" y="180">UNREGISTERED</text><text fill="#eeeeee" stroke="none" font-family="Arial" font-size="24px" font-style="normal" font-weight="normal" text-decoration="none" x="0" y="210">UNREGISTERED</text><text fill="#eeeeee" stroke="none" font-family="Arial" font-size="24px" font-style="normal" font-weight="normal" text-decoration="none" x="0" y="240">UNREGISTERED</text><text fill="#eeeeee" stroke="none" font-family="Arial" font-size="24px" font-style="normal" font-weight="normal" text-decoration="none" x="0" y="270">UNREGISTERED</text><text fill="#eeeeee" stroke="none" font-family="Arial" font-size="24px" font-style="normal" font-weight="normal" text-decoration="none" x="0" y="300">UNREGISTERED</text><text fill="#eeeeee" stroke="none" font-family="Arial" font-size="24px" font-style="normal" font-weight="normal" text-decoration="none" x="0" y="330">UNREGISTERED</text><text fill="#eeeeee" stroke="none" font-family="Arial" font-size="24px" font-style="normal" font-weight="normal" text-decoration="none" x="0" y="360">UNREGISTERED</text><text fill="#eeeeee" stroke="none" font-family="Arial" font-size="24px" font-style="normal" font-weight="normal" text-decoration="none" x="0" y="390">UNREGISTERED</text><text fill="#eeeeee" stroke="none" font-family="Arial" font-size="24px" font-style="normal" font-weight="normal" text-decoration="none" x="0" y="420">UNREGISTERED</text><text fill="#eeeeee" stroke="none" font-family="Arial" font-size="24px" font-style="normal" font-weight="normal" text-decoration="none" x="0" y="450">UNREGISTERED</text><text fill="#eeeeee" stroke="none" font-family="Arial" font-size="24px" font-style="normal" font-weight="normal" text-decoration="none" x="0" y="480">UNREGISTERED</text><text fill="#eeeeee" stroke="none" font-family="Arial" font-size="24px" font-style="normal" font-weight="normal" text-decoration="none" x="0" y="510">UNREGISTERED</text><text fill="#eeeeee" stroke="none" font-family="Arial" font-size="24px" font-style="normal" font-weight="normal" text-decoration="none" x="0" y="540">UNREGISTERED</text><text fill="#eeeeee" stroke="none" font-family="Arial" font-size="24px" font-style="normal" font-weight="normal" text-decoration="none" x="0" y="570">UNREGISTERED</text><text fill="#eeeeee" stroke="none" font-family="Arial" font-size="24px" font-style="normal" font-weight="normal" text-decoration="none" x="0" y="600">UNREGISTERED</text><text fill="#eeeeee" stroke="none" font-family="Arial" font-size="24px" font-style="normal" font-weight="normal" text-decoration="none" x="0" y="630">UNREGISTERED</text><text fill="#eeeeee" stroke="none" font-family="Arial" font-size="24px" font-style="normal" font-weight="normal" text-decoration="none" x="0" y="660">UNREGISTERED</text><text fill="#eeeeee" stroke="none" font-family="Arial" font-size="24px" font-style="normal" font-weight="normal" text-decoration="none" x="0" y="690">UNREGISTERED</text><text fill="#eeeeee" stroke="none" font-family="Arial" font-size="24px" font-style="normal" font-weight="normal" text-decoration="none" x="0" y="720">UNREGISTERED</text><text fill="#eeeeee" stroke="none" font-family="Arial" font-size="24px" font-style="normal" font-weight="normal" text-decoration="none" x="0" y="750">UNREGISTERED</text><text fill="#eeeeee" stroke="none" font-family="Arial" font-size="24px" font-style="normal" font-weight="normal" text-decoration="none" x="0" y="780">UNREGISTERED</text><text fill="#eeeeee" stroke="none" font-family="Arial" font-size="24px" font-style="normal" font-weight="normal" text-decoration="none" x="0" y="810">UNREGISTERED</text><text fill="#eeeeee" stroke="none" font-family="Arial" font-size="24px" font-style="normal" font-weight="normal" text-decoration="none" x="0" y="840">UNREGISTERED</text><text fill="#eeeeee" stroke="none" font-family="Arial" font-size="24px" font-style="normal" font-weight="normal" text-decoration="none" x="0" y="870">UNREGISTERED</text><text fill="#eeeeee" stroke="none" font-family="Arial" font-size="24px" font-style="normal" font-weight="normal" text-decoration="none" x="0" y="900">UNREGISTERED</text><text fill="#eeeeee" stroke="none" font-family="Arial" font-size="24px" font-style="normal" font-weight="normal" text-decoration="none" x="0" y="930">UNREGISTERED</text><text fill="#eeeeee" stroke="none" font-family="Arial" font-size="24px" font-style="normal" font-weight="normal" text-decoration="none" x="0" y="960">UNREGISTERED</text><text fill="#eeeeee" stroke="none" font-family="Arial" font-size="24px" font-style="normal" font-weight="normal" text-decoration="none" x="200" y="0">UNREGISTERED</text><text fill="#eeeeee" stroke="none" font-family="Arial" font-size="24px" font-style="normal" font-weight="normal" text-decoration="none" x="200" y="30">UNREGISTERED</text><text fill="#eeeeee" stroke="none" font-family="Arial" font-size="24px" font-style="normal" font-weight="normal" text-decoration="none" x="200" y="60">UNREGISTERED</text><text fill="#eeeeee" stroke="none" font-family="Arial" font-size="24px" font-style="normal" font-weight="normal" text-decoration="none" x="200" y="90">UNREGISTERED</text><text fill="#eeeeee" stroke="none" font-family="Arial" font-size="24px" font-style="normal" font-weight="normal" text-decoration="none" x="200" y="120">UNREGISTERED</text><text fill="#eeeeee" stroke="none" font-family="Arial" font-size="24px" font-style="normal" font-weight="normal" text-decoration="none" x="200" y="150">UNREGISTERED</text><text fill="#eeeeee" stroke="none" font-family="Arial" font-size="24px" font-style="normal" font-weight="normal" text-decoration="none" x="200" y="180">UNREGISTERED</text><text fill="#eeeeee" stroke="none" font-family="Arial" font-size="24px" font-style="normal" font-weight="normal" text-decoration="none" x="200" y="210">UNREGISTERED</text><text fill="#eeeeee" stroke="none" font-family="Arial" font-size="24px" font-style="normal" font-weight="normal" text-decoration="none" x="200" y="240">UNREGISTERED</text><text fill="#eeeeee" stroke="none" font-family="Arial" font-size="24px" font-style="normal" font-weight="normal" text-decoration="none" x="200" y="270">UNREGISTERED</text><text fill="#eeeeee" stroke="none" font-family="Arial" font-size="24px" font-style="normal" font-weight="normal" text-decoration="none" x="200" y="300">UNREGISTERED</text><text fill="#eeeeee" stroke="none" font-family="Arial" font-size="24px" font-style="normal" font-weight="normal" text-decoration="none" x="200" y="330">UNREGISTERED</text><text fill="#eeeeee" stroke="none" font-family="Arial" font-size="24px" font-style="normal" font-weight="normal" text-decoration="none" x="200" y="360">UNREGISTERED</text><text fill="#eeeeee" stroke="none" font-family="Arial" font-size="24px" font-style="normal" font-weight="normal" text-decoration="none" x="200" y="390">UNREGISTERED</text><text fill="#eeeeee" stroke="none" font-family="Arial" font-size="24px" font-style="normal" font-weight="normal" text-decoration="none" x="200" y="420">UNREGISTERED</text><text fill="#eeeeee" stroke="none" font-family="Arial" font-size="24px" font-style="normal" font-weight="normal" text-decoration="none" x="200" y="450">UNREGISTERED</text><text fill="#eeeeee" stroke="none" font-family="Arial" font-size="24px" font-style="normal" font-weight="normal" text-decoration="none" x="200" y="480">UNREGISTERED</text><text fill="#eeeeee" stroke="none" font-family="Arial" font-size="24px" font-style="normal" font-weight="normal" text-decoration="none" x="200" y="510">UNREGISTERED</text><text fill="#eeeeee" stroke="none" font-family="Arial" font-size="24px" font-style="normal" font-weight="normal" text-decoration="none" x="200" y="540">UNREGISTERED</text><text fill="#eeeeee" stroke="none" font-family="Arial" font-size="24px" font-style="normal" font-weight="normal" text-decoration="none" x="200" y="570">UNREGISTERED</text><text fill="#eeeeee" stroke="none" font-family="Arial" font-size="24px" font-style="normal" font-weight="normal" text-decoration="none" x="200" y="600">UNREGISTERED</text><text fill="#eeeeee" stroke="none" font-family="Arial" font-size="24px" font-style="normal" font-weight="normal" text-decoration="none" x="200" y="630">UNREGISTERED</text><text fill="#eeeeee" stroke="none" font-family="Arial" font-size="24px" font-style="normal" font-weight="normal" text-decoration="none" x="200" y="660">UNREGISTERED</text><text fill="#eeeeee" stroke="none" font-family="Arial" font-size="24px" font-style="normal" font-weight="normal" text-decoration="none" x="200" y="690">UNREGISTERED</text><text fill="#eeeeee" stroke="none" font-family="Arial" font-size="24px" font-style="normal" font-weight="normal" text-decoration="none" x="200" y="720">UNREGISTERED</text><text fill="#eeeeee" stroke="none" font-family="Arial" font-size="24px" font-style="normal" font-weight="normal" text-decoration="none" x="200" y="750">UNREGISTERED</text><text fill="#eeeeee" stroke="none" font-family="Arial" font-size="24px" font-style="normal" font-weight="normal" text-decoration="none" x="200" y="780">UNREGISTERED</text><text fill="#eeeeee" stroke="none" font-family="Arial" font-size="24px" font-style="normal" font-weight="normal" text-decoration="none" x="200" y="810">UNREGISTERED</text><text fill="#eeeeee" stroke="none" font-family="Arial" font-size="24px" font-style="normal" font-weight="normal" text-decoration="none" x="200" y="840">UNREGISTERED</text><text fill="#eeeeee" stroke="none" font-family="Arial" font-size="24px" font-style="normal" font-weight="normal" text-decoration="none" x="200" y="870">UNREGISTERED</text><text fill="#eeeeee" stroke="none" font-family="Arial" font-size="24px" font-style="normal" font-weight="normal" text-decoration="none" x="200" y="900">UNREGISTERED</text><text fill="#eeeeee" stroke="none" font-family="Arial" font-size="24px" font-style="normal" font-weight="normal" text-decoration="none" x="200" y="930">UNREGISTERED</text><text fill="#eeeeee" stroke="none" font-family="Arial" font-size="24px" font-style="normal" font-weight="normal" text-decoration="none" x="200" y="960">UNREGISTERED</text><g transform="translate(-534,-62) scale(1,1)"><path fill="#C0C0C0" stroke="none" d="M 711 88.5 C 711 83.2532944 715.2532944 79 720.5 79 C 725.7467056 79 730 83.2532944 730 88.5 C 730 93.7467056 725.7467056 98 720.5 98 C 715.2532944 98 711 93.7467056 711 88.5 Z" opacity="0.2"/></g><g transform="translate(-534,-62) scale(1,1)"><path fill="#000000" stroke="none" d="M 704 81.5 C 704 76.2532944 708.2532944 72 713.5 72 C 718.7467056 72 723 76.2532944 723 81.5 C 723 86.7467056 718.7467056 91 713.5 91 C 708.2532944 91 704 86.7467056 704 81.5 Z"/></g><g transform="translate(-534,-62) scale(1,1)"><path fill="#C0C0C0" stroke="none" d="M 655 1027.5 C 655 1020.59644 660.59644 1015 667.5 1015 C 674.40356 1015 680 1020.59644 680 1027.5 C 680 1034.40356 674.40356 1040 667.5 1040 C 660.59644 1040 655 1034.40356 655 1027.5 Z" opacity="0.2"/></g><g transform="translate(-534,-62) scale(1,1)"><path fill="none" stroke="#000000" d="M 648 1020.5 C 648 1013.59644 653.59644 1008 660.5 1008 C 667.40356 1008 673 1013.59644 673 1020.5 C 673 1027.40356 667.40356 1033 660.5 1033 C 653.59644 1033 648 1027.40356 648 1020.5 Z" stroke-miterlimit="10"/></g><g transform="translate(-534,-62) scale(1,1)"><path fill="#000000" stroke="none" d="M 653 1020.5 C 653 1016.357864 656.357864 1013 660.5 1013 C 664.642136 1013 668 1016.357864 668 1020.5 C 668 1024.642136 664.642136 1028 660.5 1028 C 656.357864 1028 653 1024.642136 653 1020.5 Z"/></g><g transform="translate(-534,-62) scale(1,1)"><path fill="#C0C0C0" stroke="none" d="M 609 223 L 722.99169921875 223 Q 732.99169921875 223 732.99169921875 233 L 732.99169921875 260 Q 732.99169921875 270 722.99169921875 270 L 609 270 Q 599 270 599 260 L 599 233 Q 599 223 609 223 Z" opacity="0.2"/></g><g transform="translate(-534,-62) scale(1,1)"><path fill="#ffffff" stroke="none" d="M 602 216 L 715.99169921875 216 Q 725.99169921875 216 725.99169921875 226 L 725.99169921875 253 Q 725.99169921875 263 715.99169921875 263 L 602 263 Q 592 263 592 253 L 592 226 Q 592 216 602 216 Z"/></g><g transform="translate(-534,-62) scale(1,1)"><path fill="none" stroke="#000000" d="M 602 216 L 715.99169921875 216 Q 725.99169921875 216 725.99169921875 226 L 725.99169921875 253 Q 725.99169921875 263 715.99169921875 263 L 602 263 Q 592 263 592 253 L 592 226 Q 592 216 602 216 Z" stroke-miterlimit="10"/></g><g transform="translate(-534,-62) scale(1,1)"><path fill="none" stroke="#000000" d="M 592 241 L 725.99169921875 241" stroke-miterlimit="10"/></g><g transform="translate(-534,-62) scale(1,1)"><g><path fill="none" stroke="none"/><text fill="#000000" stroke="none" font-family="Arial" font-size="13px" font-style="normal" font-weight="bold" text-decoration="none" x="596.5" y="233.5">Selecionando acoes</text></g></g><g transform="translate(-534,-62) scale(1,1)"><g><path fill="none" stroke="none"/><text fill="#000000" stroke="none" font-family="Arial" font-size="13px" font-style="normal" font-weight="normal" text-decoration="none" x="597" y="256.5">do/selecionarAcoes()</text></g></g><g transform="translate(-534,-62) scale(1,1)"><path fill="#C0C0C0" stroke="none" d="M 617 423 L 776.47900390625 423 Q 786.47900390625 423 786.47900390625 433 L 786.47900390625 460 Q 786.47900390625 470 776.47900390625 470 L 617 470 Q 607 470 607 460 L 607 433 Q 607 423 617 423 Z" opacity="0.2"/></g><g transform="translate(-534,-62) scale(1,1)"><path fill="#ffffff" stroke="none" d="M 610 416 L 769.47900390625 416 Q 779.47900390625 416 779.47900390625 426 L 779.47900390625 453 Q 779.47900390625 463 769.47900390625 463 L 610 463 Q 600 463 600 453 L 600 426 Q 600 416 610 416 Z"/></g><g transform="translate(-534,-62) scale(1,1)"><path fill="none" stroke="#000000" d="M 610 416 L 769.47900390625 416 Q 779.47900390625 416 779.47900390625 426 L 779.47900390625 453 Q 779.47900390625 463 769.47900390625 463 L 610 463 Q 600 463 600 453 L 600 426 Q 600 416 610 416 Z" stroke-miterlimit="10"/></g><g transform="translate(-534,-62) scale(1,1)"><path fill="none" stroke="#000000" d="M 600 441 L 779.47900390625 441" stroke-miterlimit="10"/></g><g transform="translate(-534,-62) scale(1,1)"><g><path fill="none" stroke="none"/><text fill="#000000" stroke="none" font-family="Arial" font-size="13px" font-style="normal" font-weight="bold" text-decoration="none" x="640.25634765625" y="433.5">Gerando Ordem</text></g></g><g transform="translate(-534,-62) scale(1,1)"><g><path fill="none" stroke="none"/><text fill="#000000" stroke="none" font-family="Arial" font-size="13px" font-style="normal" font-weight="normal" text-decoration="none" x="605" y="456.5">do/gerarOrdem()</text></g></g><g transform="translate(-534,-62) scale(1,1)"><path fill="#C0C0C0" stroke="none" d="M 593 839 L 757.53173828125 839 Q 767.53173828125 839 767.53173828125 849 L 767.53173828125 876 Q 767.53173828125 886 757.53173828125 886 L 593 886 Q 583 886 583 876 L 583 849 Q 583 839 593 839 Z" opacity="0.2"/></g><g transform="translate(-534,-62) scale(1,1)"><path fill="#ffffff" stroke="none" d="M 586 832 L 750.53173828125 832 Q 760.53173828125 832 760.53173828125 842 L 760.53173828125 869 Q 760.53173828125 879 750.53173828125 879 L 586 879 Q 576 879 576 869 L 576 842 Q 576 832 586 832 Z"/></g><g transform="translate(-534,-62) scale(1,1)"><path fill="none" stroke="#000000" d="M 586 832 L 750.53173828125 832 Q 760.53173828125 832 760.53173828125 842 L 760.53173828125 869 Q 760.53173828125 879 750.53173828125 879 L 586 879 Q 576 879 576 869 L 576 842 Q 576 832 586 832 Z" stroke-miterlimit="10"/></g><g transform="translate(-534,-62) scale(1,1)"><path fill="none" stroke="#000000" d="M 576 857 L 760.53173828125 857" stroke-miterlimit="10"/></g><g transform="translate(-534,-62) scale(1,1)"><g><path fill="none" stroke="none"/><text fill="#000000" stroke="none" font-family="Arial" font-size="13px" font-style="normal" font-weight="bold" text-decoration="none" x="616.25634765625" y="849.5">Enviando Ordem</text></g></g><g transform="translate(-534,-62) scale(1,1)"><g><path fill="none" stroke="none"/><text fill="#000000" stroke="none" font-family="Arial" font-size="13px" font-style="normal" font-weight="normal" text-decoration="none" x="581" y="872.5">do/enviarOrdem()</text></g></g><g transform="translate(-534,-62) scale(1,1)"><path fill="#C0C0C0" stroke="none" d="M 561 639 L 740.68994140625 639 Q 750.68994140625 639 750.68994140625 649 L 750.68994140625 676 Q 750.68994140625 686 740.68994140625 686 L 561 686 Q 551 686 551 676 L 551 649 Q 551 639 561 639 Z" opacity="0.2"/></g><g transform="translate(-534,-62) scale(1,1)"><path fill="#ffffff" stroke="none" d="M 554 632 L 733.68994140625 632 Q 743.68994140625 632 743.68994140625 642 L 743.68994140625 669 Q 743.68994140625 679 733.68994140625 679 L 554 679 Q 544 679 544 669 L 544 642 Q 544 632 554 632 Z"/></g><g transform="translate(-534,-62) scale(1,1)"><path fill="none" stroke="#000000" d="M 554 632 L 733.68994140625 632 Q 743.68994140625 632 743.68994140625 642 L 743.68994140625 669 Q 743.68994140625 679 733.68994140625 679 L 554 679 Q 544 679 544 669 L 544 642 Q 544 632 554 632 Z" stroke-miterlimit="10"/></g><g transform="translate(-534,-62) scale(1,1)"><path fill="none" stroke="#000000" d="M 544 657 L 743.68994140625 657" stroke-miterlimit="10"/></g><g transform="translate(-534,-62) scale(1,1)"><g><path fill="none" stroke="none"/><text fill="#000000" stroke="none" font-family="Arial" font-size="13px" font-style="normal" font-weight="bold" text-decoration="none" x="584.25634765625" y="649.5">Atualizando Ordem</text></g></g><g transform="translate(-534,-62) scale(1,1)"><g><path fill="none" stroke="none"/><text fill="#000000" stroke="none" font-family="Arial" font-size="13px" font-style="normal" font-weight="normal" text-decoration="none" x="549" y="672.5">do/atualizarOrdem()</text></g></g><g transform="translate(-534,-62) scale(1,1)"><path fill="none" stroke="#000000" d="M 662 264 L 685 415" stroke-miterlimit="10"/></g><g transform="translate(-534,-62) scale(1,1)"><path fill="none" stroke="#000000" d="M 679.3081738356852 405.5870772384332 L 685 415 L 687.6312126373671 404.319329606389" stroke-miterlimit="10"/></g><g transform="translate(-534,-62) scale(1,1)"><path fill="none" stroke="#000000" d="M 684 464 L 648 631" stroke-miterlimit="10"/></g><g transform="translate(-534,-62) scale(1,1)"><path fill="none" stroke="#000000" d="M 646.0265704098912 620.1784670377583 L 648 631 L 654.2565538950747 621.9525952142051" stroke-miterlimit="10"/></g><g transform="translate(-534,-62) scale(1,1)"><path fill="none" stroke="#000000" d="M 646 680 L 665 831" stroke-miterlimit="10"/></g><g transform="translate(-534,-62) scale(1,1)"><path fill="none" stroke="#000000" d="M 659.5546727399236 821.4423637320376 L 665 831 L 667.9078415858106 820.3913027514294" stroke-miterlimit="10"/></g><g transform="translate(-534,-62) scale(1,1)"><path fill="none" stroke="#000000" d="M 667 880 L 661 1007" stroke-miterlimit="10"/></g><g transform="translate(-534,-62) scale(1,1)"><path fill="none" stroke="#000000" d="M 657.2747636700364 996.6499944789425 L 661 1007 L 665.6844192188182 997.0473010403024" stroke-miterlimit="10"/></g><g transform="translate(-534,-62) scale(1,1)"><path fill="none" stroke="#000000" d="M 709 92 L 666 215" stroke-miterlimit="10"/></g><g transform="translate(-534,-62) scale(1,1)"><path fill="none" stroke="#000000" d="M 665.3800776730096 204.01748224183095 L 666 215 L 673.3274615000792 206.79583593747313" stroke-miterlimit="10"/></g></g></svg>