<svg version="1.1" xmlns="http://www.w3.org/2000/svg" xmlns:xlink="http://www.w3.org/1999/xlink" width="326.04443359375" height="589"><defs/><g><text fill="#eeeeee" stroke="none" font-family="Arial" font-size="24px" font-style="normal" font-weight="normal" text-decoration="none" x="0" y="0">UNREGISTERED</text><text fill="#eeeeee" stroke="none" font-family="Arial" font-size="24px" font-style="normal" font-weight="normal" text-decoration="none" x="0" y="30">UNREGISTERED</text><text fill="#eeeeee" stroke="none" font-family="Arial" font-size="24px" font-style="normal" font-weight="normal" text-decoration="none" x="0" y="60">UNREGISTERED</text><text fill="#eeeeee" stroke="none" font-family="Arial" font-size="24px" font-style="normal" font-weight="normal" text-decoration="none" x="0" y="90">UNREGISTERED</text><text fill="#eeeeee" stroke="none" font-family="Arial" font-size="24px" font-style="normal" font-weight="normal" text-decoration="none" x="0" y="120">UNREGISTERED</text><text fill="#eeeeee" stroke="none" font-family="Arial" font-size="24px" font-style="normal" font-weight="normal" text-decoration="none" x="0" y="150">UNREGISTERED</text><text fill="#eeeeee" stroke="none" font-family="Arial" font-size="24px" font-style="normal" font-weight="normal" text-decoration="none" x="0" y="180">UNREGISTERED</text><text fill="#eeeeee" stroke="none" font-family="Arial" font-size="24px" font-style="normal" font-weight="normal" text-decoration="none" x="0" y="210">UNREGISTERED</text><text fill="#eeeeee" stroke="none" font-family="Arial" font-size="24px" font-style="normal" font-weight="normal" text-decoration="none" x="0" y="240">UNREGISTERED</text><text fill="#eeeeee" stroke="none" font-family="Arial" font-size="24px" font-style="normal" font-weight="normal" text-decoration="none" x="0" y="270">UNREGISTERED</text><text fill="#eeeeee" stroke="none" font-family="Arial" font-size="24px" font-style="normal" font-weight="normal" text-decoration="none" x="0" y="300">UNREGISTERED</text><text fill="#eeeeee" stroke="none" font-family="Arial" font-size="24px" font-style="normal" font-weight="normal" text-decoration="none" x="0" y="330">UNREGISTERED</text><text fill="#eeeeee" stroke="none" font-family="Arial" font-size="24px" font-style="normal" font-weight="normal" text-decoration="none" x="0" y="360">UNREGISTERED</text><text fill="#eeeeee" stroke="none" font-family="Arial" font-size="24px" font-style="normal" font-weight="normal" text-decoration="none" x="0" y="390">UNREGISTERED</text><text fill="#eeeeee" stroke="none" font-family="Arial" font-size="24px" font-style="normal" font-weight="normal" text-decoration="none" x="0" y="420">UNREGISTERED</text><text fill="#eeeeee" stroke="none" font-family="Arial" font-size="24px" font-style="normal" font-weight="normal" text-decoration="none" x="0" y="450">UNREGISTERED</text><text fill="#eeeeee" stroke="none" font-family="Arial" font-size="24px" font-style="normal" font-weight="normal" text-decoration="none" x="0" y="480">UNREGISTERED</text><text fill="#eeeeee" stroke="none" font-family="Arial" font-size="24px" font-style="normal" font-weight="normal" text-decoration="none" x="0" y="510">UNREGISTERED</text><text fill="#eeeeee" stroke="none" font-family="Arial" font-size="24px" font-style="normal" font-weight="normal" text-decoration="none" x="0" y="540">UNREGISTERED</text><text fill="#eeeeee" stroke="none" font-family="Arial" font-size="24px" font-style="normal" font-weight="normal" text-decoration="none" x="0" y="570">UNREGISTERED</text><text fill="#eeeeee" stroke="none" font-family="Arial" font-size="24px" font-style="normal" font-weight="normal" text-decoration="none" x="200" y="0">UNREGISTERED</text><text fill="#eeeeee" stroke="none" font-family="Arial" font-size="24px" font-style="normal" font-weight="normal" text-decoration="none" x="200" y="30">UNREGISTERED</text><text fill="#eeeeee" stroke="none" font-family="Arial" font-size="24px" font-style="normal" font-weight="normal" text-decoration="none" x="200" y="60">UNREGISTERED</text><text fill="#eeeeee" stroke="none" font-family="Arial" font-size="24px" font-style="normal" font-weight="normal" text-decoration="none" x="200" y="90">UNREGISTERED</text><text fill="#eeeeee" stroke="none" font-family="Arial" font-size="24px" font-style="normal" font-weight="normal" text-decoration="none" x="200" y="120">UNREGISTERED</text><text fill="#eeeeee" stroke="none" font-family="Arial" font-size="24px" font-style="normal" font-weight="normal" text-decoration="none" x="200" y="150">UNREGISTERED</text><text fill="#eeeeee" stroke="none" font-family="Arial" font-size="24px" font-style="normal" font-weight="normal" text-decoration="none" x="200" y="180">UNREGISTERED</text><text fill="#eeeeee" stroke="none" font-family="Arial" font-size="24px" font-style="normal" font-weight="normal" text-decoration="none" x="200" y="210">UNREGISTERED</text><text fill="#eeeeee" stroke="none" font-family="Arial" font-size="24px" font-style="normal" font-weight="normal" text-decoration="none" x="200" y="240">UNREGISTERED</text><text fill="#eeeeee" stroke="none" font-family="Arial" font-size="24px" font-style="normal" font-weight="normal" text-decoration="none" x="200" y="270">UNREGISTERED</text><text fill="#eeeeee" stroke="none" font-family="Arial" font-size="24px" font-style="normal" font-weight="normal" text-decoration="none" x="200" y="300">UNREGISTERED</text><text fill="#eeeeee" stroke="none" font-family="Arial" font-size="24px" font-style="normal" font-weight="normal" text-decoration="none" x="200" y="330">UNREGISTERED</text><text fill="#eeeeee" stroke="none" font-family="Arial" font-size="24px" font-style="normal" font-weight="normal" text-decoration="none" x="200" y="360">UNREGISTERED</text><text fill="#eeeeee" stroke="none" font-family="Arial" font-size="24px" font-style="normal" font-weight="normal" text-decoration="none" x="200" y="390">UNREGISTERED</text><text fill="#eeeeee" stroke="none" font-family="Arial" font-size="24px" font-style="normal" font-weight="normal" text-decoration="none" x="200" y="420">UNREGISTERED</text><text fill="#eeeeee" stroke="none" font-family="Arial" font-size="24px" font-style="normal" font-weight="normal" text-decoration="none" x="200" y="450">UNREGISTERED</text><text fill="#eeeeee" stroke="none" font-family="Arial" font-size="24px" font-style="normal" font-weight="normal" text-decoration="none" x="200" y="480">UNREGISTERED</text><text fill="#eeeeee" stroke="none" font-family="Arial" font-size="24px" font-style="normal" font-weight="normal" text-decoration="none" x="200" y="510">UNREGISTERED</text><text fill="#eeeeee" stroke="none" font-family="Arial" font-size="24px" font-style="normal" font-weight="normal" text-decoration="none" x="200" y="540">UNREGISTERED</text><text fill="#eeeeee" stroke="none" font-family="Arial" font-size="24px" font-style="normal" font-weight="normal" text-decoration="none" x="200" y="570">UNREGISTERED</text><g transform="translate(-654,-62) scale(1,1)"><path fill="#C0C0C0" stroke="none" d="M 687 88.5 C 687 83.2532944 691.2532944 79 696.5 79 C 701.7467056 79 706 83.2532944 706 88.5 C 706 93.7467056 701.7467056 98 696.5 98 C 691.2532944 98 687 93.7467056 687 88.5 Z" opacity="0.2"/></g><g transform="translate(-654,-62) scale(1,1)"><path fill="#000000" stroke="none" d="M 680 81.5 C 680 76.2532944 684.2532944 72 689.5 72 C 694.7467056 72 699 76.2532944 699 81.5 C 699 86.7467056 694.7467056 91 689.5 91 C 684.2532944 91 680 86.7467056 680 81.5 Z"/></g><g transform="translate(-654,-62) scale(1,1)"><path fill="#C0C0C0" stroke="none" d="M 671 635.5 C 671 628.59644 676.59644 623 683.5 623 C 690.40356 623 696 628.59644 696 635.5 C 696 642.40356 690.40356 648 683.5 648 C 676.59644 648 671 642.40356 671 635.5 Z" opacity="0.2"/></g><g transform="translate(-654,-62) scale(1,1)"><path fill="none" stroke="#000000" d="M 664 628.5 C 664 621.59644 669.59644 616 676.5 616 C 683.40356 616 689 621.59644 689 628.5 C 689 635.40356 683.40356 641 676.5 641 C 669.59644 641 664 635.40356 664 628.5 Z" stroke-miterlimit="10"/></g><g transform="translate(-654,-62) scale(1,1)"><path fill="#000000" stroke="none" d="M 669 628.5 C 669 624.357864 672.357864 621 676.5 621 C 680.642136 621 684 624.357864 684 628.5 C 684 632.642136 680.642136 636 676.5 636 C 672.357864 636 669 632.642136 669 628.5 Z"/></g><g transform="translate(-654,-62) scale(1,1)"><path fill="#C0C0C0" stroke="none" d="M 841 415 L 913.0908203125 415 Q 923.0908203125 415 923.0908203125 425 L 923.0908203125 452 Q 923.0908203125 462 913.0908203125 462 L 841 462 Q 831 462 831 452 L 831 425 Q 831 415 841 415 Z" opacity="0.2"/></g><g transform="translate(-654,-62) scale(1,1)"><path fill="#ffffff" stroke="none" d="M 834 408 L 906.0908203125 408 Q 916.0908203125 408 916.0908203125 418 L 916.0908203125 445 Q 916.0908203125 455 906.0908203125 455 L 834 455 Q 824 455 824 445 L 824 418 Q 824 408 834 408 Z"/></g><g transform="translate(-654,-62) scale(1,1)"><path fill="none" stroke="#000000" d="M 834 408 L 906.0908203125 408 Q 916.0908203125 408 916.0908203125 418 L 916.0908203125 445 Q 916.0908203125 455 906.0908203125 455 L 834 455 Q 824 455 824 445 L 824 418 Q 824 408 834 408 Z" stroke-miterlimit="10"/></g><g transform="translate(-654,-62) scale(1,1)"><path fill="none" stroke="#000000" d="M 824 433 L 916.0908203125 433" stroke-miterlimit="10"/></g><g transform="translate(-654,-62) scale(1,1)"><g><path fill="none" stroke="none"/><text fill="#000000" stroke="none" font-family="Arial" font-size="13px" font-style="normal" font-weight="bold" text-decoration="none" x="834.298583984375" y="425.5">Notificando</text></g></g><g transform="translate(-654,-62) scale(1,1)"><g><path fill="none" stroke="none"/><text fill="#000000" stroke="none" font-family="Arial" font-size="13px" font-style="normal" font-weight="normal" text-decoration="none" x="829" y="448.5">do/notificar()</text></g></g><g transform="translate(-654,-62) scale(1,1)"><path fill="#C0C0C0" stroke="none" d="M 841 231 L 913.0908203125 231 Q 923.0908203125 231 923.0908203125 241 L 923.0908203125 268 Q 923.0908203125 278 913.0908203125 278 L 841 278 Q 831 278 831 268 L 831 241 Q 831 231 841 231 Z" opacity="0.2"/></g><g transform="translate(-654,-62) scale(1,1)"><path fill="#ffffff" stroke="none" d="M 834 224 L 906.0908203125 224 Q 916.0908203125 224 916.0908203125 234 L 916.0908203125 261 Q 916.0908203125 271 906.0908203125 271 L 834 271 Q 824 271 824 261 L 824 234 Q 824 224 834 224 Z"/></g><g transform="translate(-654,-62) scale(1,1)"><path fill="none" stroke="#000000" d="M 834 224 L 906.0908203125 224 Q 916.0908203125 224 916.0908203125 234 L 916.0908203125 261 Q 916.0908203125 271 906.0908203125 271 L 834 271 Q 824 271 824 261 L 824 234 Q 824 224 834 224 Z" stroke-miterlimit="10"/></g><g transform="translate(-654,-62) scale(1,1)"><path fill="none" stroke="#000000" d="M 824 249 L 916.0908203125 249" stroke-miterlimit="10"/></g><g transform="translate(-654,-62) scale(1,1)"><g><path fill="none" stroke="none"/><text fill="#000000" stroke="none" font-family="Arial" font-size="13px" font-style="normal" font-weight="bold" text-decoration="none" x="832.12451171875" y="241.5">Registrando</text></g></g><g transform="translate(-654,-62) scale(1,1)"><g><path fill="none" stroke="none"/><text fill="#000000" stroke="none" font-family="Arial" font-size="13px" font-style="normal" font-weight="normal" text-decoration="none" x="829" y="264.5">do/registrar()</text></g></g><g transform="translate(-654,-62) scale(1,1)"><path fill="none" stroke="#000000" d="M 700 91 L 844 223" stroke-miterlimit="10"/></g><g transform="translate(-654,-62) scale(1,1)"><path fill="none" stroke="#000000" d="M 833.6640673312673 219.23589374918507 L 844 223 L 839.3530169751094 213.02976686499363" stroke-miterlimit="10"/></g><g transform="translate(-654,-62) scale(1,1)"><g><path fill="none" stroke="none"/><text fill="#000000" stroke="none" font-family="Arial" font-size="13px" font-style="normal" font-weight="normal" text-decoration="none" x="774.5" y="154.5"> [se acionado]</text></g></g><g transform="translate(-654,-62) scale(1,1)"><path fill="none" stroke="#000000" d="M 870 272 L 870 407" stroke-miterlimit="10"/></g><g transform="translate(-654,-62) scale(1,1)"><path fill="none" stroke="#000000" d="M 865.790482243984 396.83732514237585 L 870 407 L 874.209517756016 396.83732514237585" stroke-miterlimit="10"/></g><g transform="translate(-654,-62) scale(1,1)"><g><path fill="none" stroke="none"/><text fill="#000000" stroke="none" font-family="Arial" font-size="13px" font-style="normal" font-weight="normal" text-decoration="none" x="879.5" y="338.5"> [se necessario]</text></g></g><g transform="translate(-654,-62) scale(1,1)"><path fill="none" stroke="#000000" d="M 845 456 L 689 615" stroke-miterlimit="10"/></g><g transform="translate(-654,-62) scale(1,1)"><path fill="none" stroke="#000000" d="M 693.1125438707226 604.7976971760596 L 689 615 L 699.122125169442 610.6938901483882" stroke-miterlimit="10"/></g></g></svg>