<svg version="1.1" xmlns="http://www.w3.org/2000/svg" xmlns:xlink="http://www.w3.org/1999/xlink" width="696.55908203125" height="661"><defs/><g><text fill="#eeeeee" stroke="none" font-family="Arial" font-size="24px" font-style="normal" font-weight="normal" text-decoration="none" x="0" y="0">UNREGISTERED</text><text fill="#eeeeee" stroke="none" font-family="Arial" font-size="24px" font-style="normal" font-weight="normal" text-decoration="none" x="0" y="30">UNREGISTERED</text><text fill="#eeeeee" stroke="none" font-family="Arial" font-size="24px" font-style="normal" font-weight="normal" text-decoration="none" x="0" y="60">UNREGISTERED</text><text fill="#eeeeee" stroke="none" font-family="Arial" font-size="24px" font-style="normal" font-weight="normal" text-decoration="none" x="0" y="90">UNREGISTERED</text><text fill="#eeeeee" stroke="none" font-family="Arial" font-size="24px" font-style="normal" font-weight="normal" text-decoration="none" x="0" y="120">UNREGISTERED</text><text fill="#eeeeee" stroke="none" font-family="Arial" font-size="24px" font-style="normal" font-weight="normal" text-decoration="none" x="0" y="150">UNREGISTERED</text><text fill="#eeeeee" stroke="none" font-family="Arial" font-size="24px" font-style="normal" font-weight="normal" text-decoration="none" x="0" y="180">UNREGISTERED</text><text fill="#eeeeee" stroke="none" font-family="Arial" font-size="24px" font-style="normal" font-weight="normal" text-decoration="none" x="0" y="210">UNREGISTERED</text><text fill="#eeeeee" stroke="none" font-family="Arial" font-size="24px" font-style="normal" font-weight="normal" text-decoration="none" x="0" y="240">UNREGISTERED</text><text fill="#eeeeee" stroke="none" font-family="Arial" font-size="24px" font-style="normal" font-weight="normal" text-decoration="none" x="0" y="270">UNREGISTERED</text><text fill="#eeeeee" stroke="none" font-family="Arial" font-size="24px" font-style="normal" font-weight="normal" text-decoration="none" x="0" y="300">UNREGISTERED</text><text fill="#eeeeee" stroke="none" font-family="Arial" font-size="24px" font-style="normal" font-weight="normal" text-decoration="none" x="0" y="330">UNREGISTERED</text><text fill="#eeeeee" stroke="none" font-family="Arial" font-size="24px" font-style="normal" font-weight="normal" text-decoration="none" x="0" y="360">UNREGISTERED</text><text fill="#eeeeee" stroke="none" font-family="Arial" font-size="24px" font-style="normal" font-weight="normal" text-decoration="none" x="0" y="390">UNREGISTERED</text><text fill="#eeeeee" stroke="none" font-family="Arial" font-size="24px" font-style="normal" font-weight="normal" text-decoration="none" x="0" y="420">UNREGISTERED</text><text fill="#eeeeee" stroke="none" font-family="Arial" font-size="24px" font-style="normal" font-weight="normal" text-decoration="none" x="0" y="450">UNREGISTERED</text><text fill="#eeeeee" stroke="none" font-family="Arial" font-size="24px" font-style="normal" font-weight="normal" text-decoration="none" x="0" y="480">UNREGISTERED</text><text fill="#eeeeee" stroke="none" font-family="Arial" font-size="24px" font-style="normal" font-weight="normal" text-decoration="none" x="0" y="510">UNREGISTERED</text><text fill="#eeeeee" stroke="none" font-family="Arial" font-size="24px" font-style="normal" font-weight="normal" text-decoration="none" x="0" y="540">UNREGISTERED</text><text fill="#eeeeee" stroke="none" font-family="Arial" font-size="24px" font-style="normal" font-weight="normal" text-decoration="none" x="0" y="570">UNREGISTERED</text><text fill="#eeeeee" stroke="none" font-family="Arial" font-size="24px" font-style="normal" font-weight="normal" text-decoration="none" x="0" y="600">UNREGISTERED</text><text fill="#eeeeee" stroke="none" font-family="Arial" font-size="24px" font-style="normal" font-weight="normal" text-decoration="none" x="0" y="630">UNREGISTERED</text><text fill="#eeeeee" stroke="none" font-family="Arial" font-size="24px" font-style="normal" font-weight="normal" text-decoration="none" x="0" y="660">UNREGISTERED</text><text fill="#eeeeee" stroke="none" font-family="Arial" font-size="24px" font-style="normal" font-weight="normal" text-decoration="none" x="200" y="0">UNREGISTERED</text><text fill="#eeeeee" stroke="none" font-family="Arial" font-size="24px" font-style="normal" font-weight="normal" text-decoration="none" x="200" y="30">UNREGISTERED</text><text fill="#eeeeee" stroke="none" font-family="Arial" font-size="24px" font-style="normal" font-weight="normal" text-decoration="none" x="200" y="60">UNREGISTERED</text><text fill="#eeeeee" stroke="none" font-family="Arial" font-size="24px" font-style="normal" font-weight="normal" text-decoration="none" x="200" y="90">UNREGISTERED</text><text fill="#eeeeee" stroke="none" font-family="Arial" font-size="24px" font-style="normal" font-weight="normal" text-decoration="none" x="200" y="120">UNREGISTERED</text><text fill="#eeeeee" stroke="none" font-family="Arial" font-size="24px" font-style="normal" font-weight="normal" text-decoration="none" x="200" y="150">UNREGISTERED</text><text fill="#eeeeee" stroke="none" font-family="Arial" font-size="24px" font-style="normal" font-weight="normal" text-decoration="none" x="200" y="180">UNREGISTERED</text><text fill="#eeeeee" stroke="none" font-family="Arial" font-size="24px" font-style="normal" font-weight="normal" text-decoration="none" x="200" y="210">UNREGISTERED</text><text fill="#eeeeee" stroke="none" font-family="Arial" font-size="24px" font-style="normal" font-weight="normal" text-decoration="none" x="200" y="240">UNREGISTERED</text><text fill="#eeeeee" stroke="none" font-family="Arial" font-size="24px" font-style="normal" font-weight="normal" text-decoration="none" x="200" y="270">UNREGISTERED</text><text fill="#eeeeee" stroke="none" font-family="Arial" font-size="24px" font-style="normal" font-weight="normal" text-decoration="none" x="200" y="300">UNREGISTERED</text><text fill="#eeeeee" stroke="none" font-family="Arial" font-size="24px" font-style="normal" font-weight="normal" text-decoration="none" x="200" y="330">UNREGISTERED</text><text fill="#eeeeee" stroke="none" font-family="Arial" font-size="24px" font-style="normal" font-weight="normal" text-decoration="none" x="200" y="360">UNREGISTERED</text><text fill="#eeeeee" stroke="none" font-family="Arial" font-size="24px" font-style="normal" font-weight="normal" text-decoration="none" x="200" y="390">UNREGISTERED</text><text fill="#eeeeee" stroke="none" font-family="Arial" font-size="24px" font-style="normal" font-weight="normal" text-decoration="none" x="200" y="420">UNREGISTERED</text><text fill="#eeeeee" stroke="none" font-family="Arial" font-size="24px" font-style="normal" font-weight="normal" text-decoration="none" x="200" y="450">UNREGISTERED</text><text fill="#eeeeee" stroke="none" font-family="Arial" font-size="24px" font-style="normal" font-weight="normal" text-decoration="none" x="200" y="480">UNREGISTERED</text><text fill="#eeeeee" stroke="none" font-family="Arial" font-size="24px" font-style="normal" font-weight="normal" text-decoration="none" x="200" y="510">UNREGISTERED</text><text fill="#eeeeee" stroke="none" font-family="Arial" font-size="24px" font-style="normal" font-weight="normal" text-decoration="none" x="200" y="540">UNREGISTERED</text><text fill="#eeeeee" stroke="none" font-family="Arial" font-size="24px" font-style="normal" font-weight="normal" text-decoration="none" x="200" y="570">UNREGISTERED</text><text fill="#eeeeee" stroke="none" font-family="Arial" font-size="24px" font-style="normal" font-weight="normal" text-decoration="none" x="200" y="600">UNREGISTERED</text><text fill="#eeeeee" stroke="none" font-family="Arial" font-size="24px" font-style="normal" font-weight="normal" text-decoration="none" x="200" y="630">UNREGISTERED</text><text fill="#eeeeee" stroke="none" font-family="Arial" font-size="24px" font-style="normal" font-weight="normal" text-decoration="none" x="200" y="660">UNREGISTERED</text><text fill="#eeeeee" stroke="none" font-family="Arial" font-size="24px" font-style="normal" font-weight="normal" text-decoration="none" x="400" y="0">UNREGISTERED</text><text fill="#eeeeee" stroke="none" font-family="Arial" font-size="24px" font-style="normal" font-weight="normal" text-decoration="none" x="400" y="30">UNREGISTERED</text><text fill="#eeeeee" stroke="none" font-family="Arial" font-size="24px" font-style="normal" font-weight="normal" text-decoration="none" x="400" y="60">UNREGISTERED</text><text fill="#eeeeee" stroke="none" font-family="Arial" font-size="24px" font-style="normal" font-weight="normal" text-decoration="none" x="400" y="90">UNREGISTERED</text><text fill="#eeeeee" stroke="none" font-family="Arial" font-size="24px" font-style="normal" font-weight="normal" text-decoration="none" x="400" y="120">UNREGISTERED</text><text fill="#eeeeee" stroke="none" font-family="Arial" font-size="24px" font-style="normal" font-weight="normal" text-decoration="none" x="400" y="150">UNREGISTERED</text><text fill="#eeeeee" stroke="none" font-family="Arial" font-size="24px" font-style="normal" font-weight="normal" text-decoration="none" x="400" y="180">UNREGISTERED</text><text fill="#eeeeee" stroke="none" font-family="Arial" font-size="24px" font-style="normal" font-weight="normal" text-decoration="none" x="400" y="210">UNREGISTERED</text><text fill="#eeeeee" stroke="none" font-family="Arial" font-size="24px" font-style="normal" font-weight="normal" text-decoration="none" x="400" y="240">UNREGISTERED</text><text fill="#eeeeee" stroke="none" font-family="Arial" font-size="24px" font-style="normal" font-weight="normal" text-decoration="none" x="400" y="270">UNREGISTERED</text><text fill="#eeeeee" stroke="none" font-family="Arial" font-size="24px" font-style="normal" font-weight="normal" text-decoration="none" x="400" y="300">UNREGISTERED</text><text fill="#eeeeee" stroke="none" font-family="Arial" font-size="24px" font-style="normal" font-weight="normal" text-decoration="none" x="400" y="330">UNREGISTERED</text><text fill="#eeeeee" stroke="none" font-family="Arial" font-size="24px" font-style="normal" font-weight="normal" text-decoration="none" x="400" y="360">UNREGISTERED</text><text fill="#eeeeee" stroke="none" font-family="Arial" font-size="24px" font-style="normal" font-weight="normal" text-decoration="none" x="400" y="390">UNREGISTERED</text><text fill="#eeeeee" stroke="none" font-family="Arial" font-size="24px" font-style="normal" font-weight="normal" text-decoration="none" x="400" y="420">UNREGISTERED</text><text fill="#eeeeee" stroke="none" font-family="Arial" font-size="24px" font-style="normal" font-weight="normal" text-decoration="none" x="400" y="450">UNREGISTERED</text><text fill="#eeeeee" stroke="none" font-family="Arial" font-size="24px" font-style="normal" font-weight="normal" text-decoration="none" x="400" y="480">UNREGISTERED</text><text fill="#eeeeee" stroke="none" font-family="Arial" font-size="24px" font-style="normal" font-weight="normal" text-decoration="none" x="400" y="510">UNREGISTERED</text><text fill="#eeeeee" stroke="none" font-family="Arial" font-size="24px" font-style="normal" font-weight="normal" text-decoration="none" x="400" y="540">UNREGISTERED</text><text fill="#eeeeee" stroke="none" font-family="Arial" font-size="24px" font-style="normal" font-weight="normal" text-decoration="none" x="400" y="570">UNREGISTERED</text><text fill="#eeeeee" stroke="none" font-family="Arial" font-size="24px" font-style="normal" font-weight="normal" text-decoration="none" x="400" y="600">UNREGISTERED</text><text fill="#eeeeee" stroke="none" font-family="Arial" font-size="24px" font-style="normal" font-weight="normal" text-decoration="none" x="400" y="630">UNREGISTERED</text><text fill="#eeeeee" stroke="none" font-family="Arial" font-size="24px" font-style="normal" font-weight="normal" text-decoration="none" x="400" y="660">UNREGISTERED</text><text fill="#eeeeee" stroke="none" font-family="Arial" font-size="24px" font-style="normal" font-weight="normal" text-decoration="none" x="600" y="0">UNREGISTERED</text><text fill="#eeeeee" stroke="none" font-family="Arial" font-size="24px" font-style="normal" font-weight="normal" text-decoration="none" x="600" y="30">UNREGISTERED</text><text fill="#eeeeee" stroke="none" font-family="Arial" font-size="24px" font-style="normal" font-weight="normal" text-decoration="none" x="600" y="60">UNREGISTERED</text><text fill="#eeeeee" stroke="none" font-family="Arial" font-size="24px" font-style="normal" font-weight="normal" text-decoration="none" x="600" y="90">UNREGISTERED</text><text fill="#eeeeee" stroke="none" font-family="Arial" font-size="24px" font-style="normal" font-weight="normal" text-decoration="none" x="600" y="120">UNREGISTERED</text><text fill="#eeeeee" stroke="none" font-family="Arial" font-size="24px" font-style="normal" font-weight="normal" text-decoration="none" x="600" y="150">UNREGISTERED</text><text fill="#eeeeee" stroke="none" font-family="Arial" font-size="24px" font-style="normal" font-weight="normal" text-decoration="none" x="600" y="180">UNREGISTERED</text><text fill="#eeeeee" stroke="none" font-family="Arial" font-size="24px" font-style="normal" font-weight="normal" text-decoration="none" x="600" y="210">UNREGISTERED</text><text fill="#eeeeee" stroke="none" font-family="Arial" font-size="24px" font-style="normal" font-weight="normal" text-decoration="none" x="600" y="240">UNREGISTERED</text><text fill="#eeeeee" stroke="none" font-family="Arial" font-size="24px" font-style="normal" font-weight="normal" text-decoration="none" x="600" y="270">UNREGISTERED</text><text fill="#eeeeee" stroke="none" font-family="Arial" font-size="24px" font-style="normal" font-weight="normal" text-decoration="none" x="600" y="300">UNREGISTERED</text><text fill="#eeeeee" stroke="none" font-family="Arial" font-size="24px" font-style="normal" font-weight="normal" text-decoration="none" x="600" y="330">UNREGISTERED</text><text fill="#eeeeee" stroke="none" font-family="Arial" font-size="24px" font-style="normal" font-weight="normal" text-decoration="none" x="600" y="360">UNREGISTERED</text><text fill="#eeeeee" stroke="none" font-family="Arial" font-size="24px" font-style="normal" font-weight="normal" text-decoration="none" x="600" y="390">UNREGISTERED</text><text fill="#eeeeee" stroke="none" font-family="Arial" font-size="24px" font-style="normal" font-weight="normal" text-decoration="none" x="600" y="420">UNREGISTERED</text><text fill="#eeeeee" stroke="none" font-family="Arial" font-size="24px" font-style="normal" font-weight="normal" text-decoration="none" x="600" y="450">UNREGISTERED</text><text fill="#eeeeee" stroke="none" font-family="Arial" font-size="24px" font-style="normal" font-weight="normal" text-decoration="none" x="600" y="480">UNREGISTERED</text><text fill="#eeeeee" stroke="none" font-family="Arial" font-size="24px" font-style="normal" font-weight="normal" text-decoration="none" x="600" y="510">UNREGISTERED</text><text fill="#eeeeee" stroke="none" font-family="Arial" font-size="24px" font-style="normal" font-weight="normal" text-decoration="none" x="600" y="540">UNREGISTERED</text><text fill="#eeeeee" stroke="none" font-family="Arial" font-size="24px" font-style="normal" font-weight="normal" text-decoration="none" x="600" y="570">UNREGISTERED</text><text fill="#eeeeee" stroke="none" font-family="Arial" font-size="24px" font-style="normal" font-weight="normal" text-decoration="none" x="600" y="600">UNREGISTERED</text><text fill="#eeeeee" stroke="none" font-family="Arial" font-size="24px" font-style="normal" font-weight="normal" text-decoration="none" x="600" y="630">UNREGISTERED</text><text fill="#eeeeee" stroke="none" font-family="Arial" font-size="24px" font-style="normal" font-weight="normal" text-decoration="none" x="600" y="660">UNREGISTERED</text><g transform="translate(-206,-38) scale(1,1)"><path fill="#C0C0C0" stroke="none" d="M 583 64.5 C 583 59.2532944 587.2532944 55 592.5 55 C 597.7467056 55 602 59.2532944 602 64.5 C 602 69.7467056 597.7467056 74 592.5 74 C 587.2532944 74 583 69.7467056 583 64.5 Z" opacity="0.2"/></g><g transform="translate(-206,-38) scale(1,1)"><path fill="#000000" stroke="none" d="M 576 57.5 C 576 52.2532944 580.2532944 48 585.5 48 C 590.7467056 48 595 52.2532944 595 57.5 C 595 62.7467056 590.7467056 67 585.5 67 C 580.2532944 67 576 62.7467056 576 57.5 Z"/></g><g transform="translate(-206,-38) scale(1,1)"><path fill="#C0C0C0" stroke="none" d="M 263 579.5 C 263 572.59644 268.59644 567 275.5 567 C 282.40356 567 288 572.59644 288 579.5 C 288 586.40356 282.40356 592 275.5 592 C 268.59644 592 263 586.40356 263 579.5 Z" opacity="0.2"/></g><g transform="translate(-206,-38) scale(1,1)"><path fill="none" stroke="#000000" d="M 256 572.5 C 256 565.59644 261.59644 560 268.5 560 C 275.40356 560 281 565.59644 281 572.5 C 281 579.40356 275.40356 585 268.5 585 C 261.59644 585 256 579.40356 256 572.5 Z" stroke-miterlimit="10"/></g><g transform="translate(-206,-38) scale(1,1)"><path fill="#000000" stroke="none" d="M 261 572.5 C 261 568.357864 264.357864 565 268.5 565 C 272.642136 565 276 568.357864 276 572.5 C 276 576.642136 272.642136 580 268.5 580 C 264.357864 580 261 576.642136 261 572.5 Z"/></g><g transform="translate(-206,-38) scale(1,1)"><path fill="#C0C0C0" stroke="none" d="M 233 367 L 323.84814453125 367 Q 333.84814453125 367 333.84814453125 377 L 333.84814453125 404 Q 333.84814453125 414 323.84814453125 414 L 233 414 Q 223 414 223 404 L 223 377 Q 223 367 233 367 Z" opacity="0.2"/></g><g transform="translate(-206,-38) scale(1,1)"><path fill="#ffffff" stroke="none" d="M 226 360 L 316.84814453125 360 Q 326.84814453125 360 326.84814453125 370 L 326.84814453125 397 Q 326.84814453125 407 316.84814453125 407 L 226 407 Q 216 407 216 397 L 216 370 Q 216 360 226 360 Z"/></g><g transform="translate(-206,-38) scale(1,1)"><path fill="none" stroke="#000000" d="M 226 360 L 316.84814453125 360 Q 326.84814453125 360 326.84814453125 370 L 326.84814453125 397 Q 326.84814453125 407 316.84814453125 407 L 226 407 Q 216 407 216 397 L 216 370 Q 216 360 226 360 Z" stroke-miterlimit="10"/></g><g transform="translate(-206,-38) scale(1,1)"><path fill="none" stroke="#000000" d="M 216 385 L 326.84814453125 385" stroke-miterlimit="10"/></g><g transform="translate(-206,-38) scale(1,1)"><g><path fill="none" stroke="none"/><text fill="#000000" stroke="none" font-family="Arial" font-size="13px" font-style="normal" font-weight="bold" text-decoration="none" x="220.5" y="377.5">Inserindo Dados</text></g></g><g transform="translate(-206,-38) scale(1,1)"><g><path fill="none" stroke="none"/><text fill="#000000" stroke="none" font-family="Arial" font-size="13px" font-style="normal" font-weight="normal" text-decoration="none" x="221" y="400.5">do/insereDados()</text></g></g><g transform="translate(-206,-38) scale(1,1)"><path fill="#C0C0C0" stroke="none" d="M 521 463 L 632.7763671875 463 Q 642.7763671875 463 642.7763671875 473 L 642.7763671875 500 Q 642.7763671875 510 632.7763671875 510 L 521 510 Q 511 510 511 500 L 511 473 Q 511 463 521 463 Z" opacity="0.2"/></g><g transform="translate(-206,-38) scale(1,1)"><path fill="#ffffff" stroke="none" d="M 514 456 L 625.7763671875 456 Q 635.7763671875 456 635.7763671875 466 L 635.7763671875 493 Q 635.7763671875 503 625.7763671875 503 L 514 503 Q 504 503 504 493 L 504 466 Q 504 456 514 456 Z"/></g><g transform="translate(-206,-38) scale(1,1)"><path fill="none" stroke="#000000" d="M 514 456 L 625.7763671875 456 Q 635.7763671875 456 635.7763671875 466 L 635.7763671875 493 Q 635.7763671875 503 625.7763671875 503 L 514 503 Q 504 503 504 493 L 504 466 Q 504 456 514 456 Z" stroke-miterlimit="10"/></g><g transform="translate(-206,-38) scale(1,1)"><path fill="none" stroke="#000000" d="M 504 481 L 635.7763671875 481" stroke-miterlimit="10"/></g><g transform="translate(-206,-38) scale(1,1)"><g><path fill="none" stroke="none"/><text fill="#000000" stroke="none" font-family="Arial" font-size="13px" font-style="normal" font-weight="bold" text-decoration="none" x="516.79638671875" y="473.5">Checando Dados</text></g></g><g transform="translate(-206,-38) scale(1,1)"><g><path fill="none" stroke="none"/><text fill="#000000" stroke="none" font-family="Arial" font-size="13px" font-style="normal" font-weight="normal" text-decoration="none" x="509" y="496.5">do/checaDados()</text></g></g><g transform="translate(-206,-38) scale(1,1)"><path fill="#C0C0C0" stroke="none" d="M 785 359 L 889.55908203125 359 Q 899.55908203125 359 899.55908203125 369 L 899.55908203125 396 Q 899.55908203125 406 889.55908203125 406 L 785 406 Q 775 406 775 396 L 775 369 Q 775 359 785 359 Z" opacity="0.2"/></g><g transform="translate(-206,-38) scale(1,1)"><path fill="#ffffff" stroke="none" d="M 778 352 L 882.55908203125 352 Q 892.55908203125 352 892.55908203125 362 L 892.55908203125 389 Q 892.55908203125 399 882.55908203125 399 L 778 399 Q 768 399 768 389 L 768 362 Q 768 352 778 352 Z"/></g><g transform="translate(-206,-38) scale(1,1)"><path fill="none" stroke="#000000" d="M 778 352 L 882.55908203125 352 Q 892.55908203125 352 892.55908203125 362 L 892.55908203125 389 Q 892.55908203125 399 882.55908203125 399 L 778 399 Q 768 399 768 389 L 768 362 Q 768 352 778 352 Z" stroke-miterlimit="10"/></g><g transform="translate(-206,-38) scale(1,1)"><path fill="none" stroke="#000000" d="M 768 377 L 892.55908203125 377" stroke-miterlimit="10"/></g><g transform="translate(-206,-38) scale(1,1)"><g><path fill="none" stroke="none"/><text fill="#000000" stroke="none" font-family="Arial" font-size="13px" font-style="normal" font-weight="bold" text-decoration="none" x="772.5" y="369.5">Atualizando dados</text></g></g><g transform="translate(-206,-38) scale(1,1)"><g><path fill="none" stroke="none"/><text fill="#000000" stroke="none" font-family="Arial" font-size="13px" font-style="normal" font-weight="normal" text-decoration="none" x="773" y="392.5">do/atualizaDados</text></g></g><g transform="translate(-206,-38) scale(1,1)"><path fill="#C0C0C0" stroke="none" d="M 554 279 L 617 279 Q 620 279 620 282 L 620 281 Q 620 284 617 284 L 554 284 Q 551 284 551 281 L 551 282 Q 551 279 554 279 Z" opacity="0.2"/></g><g transform="translate(-206,-38) scale(1,1)"><path fill="#000000" stroke="none" d="M 547 272 L 610 272 Q 613 272 613 275 L 613 275 Q 613 278 610 278 L 547 278 Q 544 278 544 275 L 544 275 Q 544 272 547 272 Z"/></g><g transform="translate(-206,-38) scale(1,1)"><path fill="none" stroke="#000000" d="M 585 68 L 578 271" stroke-miterlimit="10"/></g><g transform="translate(-206,-38) scale(1,1)"><path fill="none" stroke="#000000" d="M 574.1432116044656 260.69829221575026 L 578 271 L 582.5572462039613 260.98843133987083" stroke-miterlimit="10"/></g><g transform="translate(-206,-38) scale(1,1)"><g><path fill="none" stroke="none"/><text fill="#000000" stroke="none" font-family="Arial" font-size="13px" font-style="normal" font-weight="normal" text-decoration="none" x="582.5" y="172.5"> [se acionado]</text></g></g><g transform="translate(-206,-38) scale(1,1)"><path fill="none" stroke="#000000" d="M 567 278 L 328 363" stroke-miterlimit="10"/></g><g transform="translate(-206,-38) scale(1,1)"><path fill="none" stroke="#000000" d="M 336.1645839630682 355.62846225608183 L 328 363 L 338.98569701234953 363.56076835935534" stroke-miterlimit="10"/></g><g transform="translate(-206,-38) scale(1,1)"><g><path fill="none" stroke="none"/><text fill="#000000" stroke="none" font-family="Arial" font-size="13px" font-style="normal" font-weight="normal" text-decoration="none" x="366.5" y="313.5"> [novos dados]</text></g></g><g transform="translate(-206,-38) scale(1,1)"><path fill="none" stroke="#000000" d="M 578 278 L 570 455" stroke-miterlimit="10"/></g><g transform="translate(-206,-38) scale(1,1)"><path fill="none" stroke="#000000" d="M 566.253636831 444.65762295185675 L 570 455 L 574.6640861427428 445.0377562540824" stroke-miterlimit="10"/></g><g transform="translate(-206,-38) scale(1,1)"><g><path fill="none" stroke="none"/><text fill="#000000" stroke="none" font-family="Arial" font-size="13px" font-style="normal" font-weight="normal" text-decoration="none" x="501.5" y="373.5"> [verificacao]</text></g></g><g transform="translate(-206,-38) scale(1,1)"><path fill="none" stroke="#000000" d="M 588 278 L 770 351" stroke-miterlimit="10"/></g><g transform="translate(-206,-38) scale(1,1)"><path fill="none" stroke="#000000" d="M 759.0006955587472 351.12370047952953 L 770 351 L 762.1348477933435 343.3097866891662" stroke-miterlimit="10"/></g><g transform="translate(-206,-38) scale(1,1)"><g><path fill="none" stroke="none"/><text fill="#000000" stroke="none" font-family="Arial" font-size="13px" font-style="normal" font-weight="normal" text-decoration="none" x="686.5" y="314.5"> [dados existentes]</text></g></g><g transform="translate(-206,-38) scale(1,1)"><path fill="#C0C0C0" stroke="none" d="M 559 683.5 C 559 676.59644 564.59644 671 571.5 671 C 578.40356 671 584 676.59644 584 683.5 C 584 690.40356 578.40356 696 571.5 696 C 564.59644 696 559 690.40356 559 683.5 Z" opacity="0.2"/></g><g transform="translate(-206,-38) scale(1,1)"><path fill="none" stroke="#000000" d="M 552 676.5 C 552 669.59644 557.59644 664 564.5 664 C 571.40356 664 577 669.59644 577 676.5 C 577 683.40356 571.40356 689 564.5 689 C 557.59644 689 552 683.40356 552 676.5 Z" stroke-miterlimit="10"/></g><g transform="translate(-206,-38) scale(1,1)"><path fill="#000000" stroke="none" d="M 557 676.5 C 557 672.357864 560.357864 669 564.5 669 C 568.642136 669 572 672.357864 572 676.5 C 572 680.642136 568.642136 684 564.5 684 C 560.357864 684 557 680.642136 557 676.5 Z"/></g><g transform="translate(-206,-38) scale(1,1)"><path fill="#C0C0C0" stroke="none" d="M 831 579.5 C 831 572.59644 836.59644 567 843.5 567 C 850.40356 567 856 572.59644 856 579.5 C 856 586.40356 850.40356 592 843.5 592 C 836.59644 592 831 586.40356 831 579.5 Z" opacity="0.2"/></g><g transform="translate(-206,-38) scale(1,1)"><path fill="none" stroke="#000000" d="M 824 572.5 C 824 565.59644 829.59644 560 836.5 560 C 843.40356 560 849 565.59644 849 572.5 C 849 579.40356 843.40356 585 836.5 585 C 829.59644 585 824 579.40356 824 572.5 Z" stroke-miterlimit="10"/></g><g transform="translate(-206,-38) scale(1,1)"><path fill="#000000" stroke="none" d="M 829 572.5 C 829 568.357864 832.357864 565 836.5 565 C 840.642136 565 844 568.357864 844 572.5 C 844 576.642136 840.642136 580 836.5 580 C 832.357864 580 829 576.642136 829 572.5 Z"/></g><g transform="translate(-206,-38) scale(1,1)"><path fill="none" stroke="#000000" d="M 271 408 L 268 559" stroke-miterlimit="10"/></g><g transform="translate(-206,-38) scale(1,1)"><path fill="none" stroke="#000000" d="M 263.99318039844195 548.7557139496903 L 268 559 L 272.4105548233359 548.9229465541583" stroke-miterlimit="10"/></g><g transform="translate(-206,-38) scale(1,1)"><path fill="none" stroke="#000000" d="M 568 504 L 564 663" stroke-miterlimit="10"/></g><g transform="translate(-206,-38) scale(1,1)"><path fill="none" stroke="#000000" d="M 560.0473975965082 652.7346732034528 L 564 663 L 568.4637702260912 652.9464058482222" stroke-miterlimit="10"/></g><g transform="translate(-206,-38) scale(1,1)"><path fill="none" stroke="#000000" d="M 831 400 L 836 559" stroke-miterlimit="10"/></g><g transform="translate(-206,-38) scale(1,1)"><path fill="none" stroke="#000000" d="M 831.4731389928661 548.9746556457102 L 836 559 L 839.8880148610152 548.7100369077181" stroke-miterlimit="10"/></g></g></svg>