<svg version="1.1" xmlns="http://www.w3.org/2000/svg" xmlns:xlink="http://www.w3.org/1999/xlink" width="669.4853515625" height="821"><defs/><g><text fill="#eeeeee" stroke="none" font-family="Arial" font-size="24px" font-style="normal" font-weight="normal" text-decoration="none" x="0" y="0">UNREGISTERED</text><text fill="#eeeeee" stroke="none" font-family="Arial" font-size="24px" font-style="normal" font-weight="normal" text-decoration="none" x="0" y="30">UNREGISTERED</text><text fill="#eeeeee" stroke="none" font-family="Arial" font-size="24px" font-style="normal" font-weight="normal" text-decoration="none" x="0" y="60">UNREGISTERED</text><text fill="#eeeeee" stroke="none" font-family="Arial" font-size="24px" font-style="normal" font-weight="normal" text-decoration="none" x="0" y="90">UNREGISTERED</text><text fill="#eeeeee" stroke="none" font-family="Arial" font-size="24px" font-style="normal" font-weight="normal" text-decoration="none" x="0" y="120">UNREGISTERED</text><text fill="#eeeeee" stroke="none" font-family="Arial" font-size="24px" font-style="normal" font-weight="normal" text-decoration="none" x="0" y="150">UNREGISTERED</text><text fill="#eeeeee" stroke="none" font-family="Arial" font-size="24px" font-style="normal" font-weight="normal" text-decoration="none" x="0" y="180">UNREGISTERED</text><text fill="#eeeeee" stroke="none" font-family="Arial" font-size="24px" font-style="normal" font-weight="normal" text-decoration="none" x="0" y="210">UNREGISTERED</text><text fill="#eeeeee" stroke="none" font-family="Arial" font-size="24px" font-style="normal" font-weight="normal" text-decoration="none" x="0" y="240">UNREGISTERED</text><text fill="#eeeeee" stroke="none" font-family="Arial" font-size="24px" font-style="normal" font-weight="normal" text-decoration="none" x="0" y="270">UNREGISTERED</text><text fill="#eeeeee" stroke="none" font-family="Arial" font-size="24px" font-style="normal" font-weight="normal" text-decoration="none" x="0" y="300">UNREGISTERED</text><text fill="#eeeeee" stroke="none" font-family="Arial" font-size="24px" font-style="normal" font-weight="normal" text-decoration="none" x="0" y="330">UNREGISTERED</text><text fill="#eeeeee" stroke="none" font-family="Arial" font-size="24px" font-style="normal" font-weight="normal" text-decoration="none" x="0" y="360">UNREGISTERED</text><text fill="#eeeeee" stroke="none" font-family="Arial" font-size="24px" font-style="normal" font-weight="normal" text-decoration="none" x="0" y="390">UNREGISTERED</text><text fill="#eeeeee" stroke="none" font-family="Arial" font-size="24px" font-style="normal" font-weight="normal" text-decoration="none" x="0" y="420">UNREGISTERED</text><text fill="#eeeeee" stroke="none" font-family="Arial" font-size="24px" font-style="normal" font-weight="normal" text-decoration="none" x="0" y="450">UNREGISTERED</text><text fill="#eeeeee" stroke="none" font-family="Arial" font-size="24px" font-style="normal" font-weight="normal" text-decoration="none" x="0" y="480">UNREGISTERED</text><text fill="#eeeeee" stroke="none" font-family="Arial" font-size="24px" font-style="normal" font-weight="normal" text-decoration="none" x="0" y="510">UNREGISTERED</text><text fill="#eeeeee" stroke="none" font-family="Arial" font-size="24px" font-style="normal" font-weight="normal" text-decoration="none" x="0" y="540">UNREGISTERED</text><text fill="#eeeeee" stroke="none" font-family="Arial" font-size="24px" font-style="normal" font-weight="normal" text-decoration="none" x="0" y="570">UNREGISTERED</text><text fill="#eeeeee" stroke="none" font-family="Arial" font-size="24px" font-style="normal" font-weight="normal" text-decoration="none" x="0" y="600">UNREGISTERED</text><text fill="#eeeeee" stroke="none" font-family="Arial" font-size="24px" font-style="normal" font-weight="normal" text-decoration="none" x="0" y="630">UNREGISTERED</text><text fill="#eeeeee" stroke="none" font-family="Arial" font-size="24px" font-style="normal" font-weight="normal" text-decoration="none" x="0" y="660">UNREGISTERED</text><text fill="#eeeeee" stroke="none" font-family="Arial" font-size="24px" font-style="normal" font-weight="normal" text-decoration="none" x="0" y="690">UNREGISTERED</text><text fill="#eeeeee" stroke="none" font-family="Arial" font-size="24px" font-style="normal" font-weight="normal" text-decoration="none" x="0" y="720">UNREGISTERED</text><text fill="#eeeeee" stroke="none" font-family="Arial" font-size="24px" font-style="normal" font-weight="normal" text-decoration="none" x="0" y="750">UNREGISTERED</text><text fill="#eeeeee" stroke="none" font-family="Arial" font-size="24px" font-style="normal" font-weight="normal" text-decoration="none" x="0" y="780">UNREGISTERED</text><text fill="#eeeeee" stroke="none" font-family="Arial" font-size="24px" font-style="normal" font-weight="normal" text-decoration="none" x="0" y="810">UNREGISTERED</text><text fill="#eeeeee" stroke="none" font-family="Arial" font-size="24px" font-style="normal" font-weight="normal" text-decoration="none" x="200" y="0">UNREGISTERED</text><text fill="#eeeeee" stroke="none" font-family="Arial" font-size="24px" font-style="normal" font-weight="normal" text-decoration="none" x="200" y="30">UNREGISTERED</text><text fill="#eeeeee" stroke="none" font-family="Arial" font-size="24px" font-style="normal" font-weight="normal" text-decoration="none" x="200" y="60">UNREGISTERED</text><text fill="#eeeeee" stroke="none" font-family="Arial" font-size="24px" font-style="normal" font-weight="normal" text-decoration="none" x="200" y="90">UNREGISTERED</text><text fill="#eeeeee" stroke="none" font-family="Arial" font-size="24px" font-style="normal" font-weight="normal" text-decoration="none" x="200" y="120">UNREGISTERED</text><text fill="#eeeeee" stroke="none" font-family="Arial" font-size="24px" font-style="normal" font-weight="normal" text-decoration="none" x="200" y="150">UNREGISTERED</text><text fill="#eeeeee" stroke="none" font-family="Arial" font-size="24px" font-style="normal" font-weight="normal" text-decoration="none" x="200" y="180">UNREGISTERED</text><text fill="#eeeeee" stroke="none" font-family="Arial" font-size="24px" font-style="normal" font-weight="normal" text-decoration="none" x="200" y="210">UNREGISTERED</text><text fill="#eeeeee" stroke="none" font-family="Arial" font-size="24px" font-style="normal" font-weight="normal" text-decoration="none" x="200" y="240">UNREGISTERED</text><text fill="#eeeeee" stroke="none" font-family="Arial" font-size="24px" font-style="normal" font-weight="normal" text-decoration="none" x="200" y="270">UNREGISTERED</text><text fill="#eeeeee" stroke="none" font-family="Arial" font-size="24px" font-style="normal" font-weight="normal" text-decoration="none" x="200" y="300">UNREGISTERED</text><text fill="#eeeeee" stroke="none" font-family="Arial" font-size="24px" font-style="normal" font-weight="normal" text-decoration="none" x="200" y="330">UNREGISTERED</text><text fill="#eeeeee" stroke="none" font-family="Arial" font-size="24px" font-style="normal" font-weight="normal" text-decoration="none" x="200" y="360">UNREGISTERED</text><text fill="#eeeeee" stroke="none" font-family="Arial" font-size="24px" font-style="normal" font-weight="normal" text-decoration="none" x="200" y="390">UNREGISTERED</text><text fill="#eeeeee" stroke="none" font-family="Arial" font-size="24px" font-style="normal" font-weight="normal" text-decoration="none" x="200" y="420">UNREGISTERED</text><text fill="#eeeeee" stroke="none" font-family="Arial" font-size="24px" font-style="normal" font-weight="normal" text-decoration="none" x="200" y="450">UNREGISTERED</text><text fill="#eeeeee" stroke="none" font-family="Arial" font-size="24px" font-style="normal" font-weight="normal" text-decoration="none" x="200" y="480">UNREGISTERED</text><text fill="#eeeeee" stroke="none" font-family="Arial" font-size="24px" font-style="normal" font-weight="normal" text-decoration="none" x="200" y="510">UNREGISTERED</text><text fill="#eeeeee" stroke="none" font-family="Arial" font-size="24px" font-style="normal" font-weight="normal" text-decoration="none" x="200" y="540">UNREGISTERED</text><text fill="#eeeeee" stroke="none" font-family="Arial" font-size="24px" font-style="normal" font-weight="normal" text-decoration="none" x="200" y="570">UNREGISTERED</text><text fill="#eeeeee" stroke="none" font-family="Arial" font-size="24px" font-style="normal" font-weight="normal" text-decoration="none" x="200" y="600">UNREGISTERED</text><text fill="#eeeeee" stroke="none" font-family="Arial" font-size="24px" font-style="normal" font-weight="normal" text-decoration="none" x="200" y="630">UNREGISTERED</text><text fill="#eeeeee" stroke="none" font-family="Arial" font-size="24px" font-style="normal" font-weight="normal" text-decoration="none" x="200" y="660">UNREGISTERED</text><text fill="#eeeeee" stroke="none" font-family="Arial" font-size="24px" font-style="normal" font-weight="normal" text-decoration="none" x="200" y="690">UNREGISTERED</text><text fill="#eeeeee" stroke="none" font-family="Arial" font-size="24px" font-style="normal" font-weight="normal" text-decoration="none" x="200" y="720">UNREGISTERED</text><text fill="#eeeeee" stroke="none" font-family="Arial" font-size="24px" font-style="normal" font-weight="normal" text-decoration="none" x="200" y="750">UNREGISTERED</text><text fill="#eeeeee" stroke="none" font-family="Arial" font-size="24px" font-style="normal" font-weight="normal" text-decoration="none" x="200" y="780">UNREGISTERED</text><text fill="#eeeeee" stroke="none" font-family="Arial" font-size="24px" font-style="normal" font-weight="normal" text-decoration="none" x="200" y="810">UNREGISTERED</text><text fill="#eeeeee" stroke="none" font-family="Arial" font-size="24px" font-style="normal" font-weight="normal" text-decoration="none" x="400" y="0">UNREGISTERED</text><text fill="#eeeeee" stroke="none" font-family="Arial" font-size="24px" font-style="normal" font-weight="normal" text-decoration="none" x="400" y="30">UNREGISTERED</text><text fill="#eeeeee" stroke="none" font-family="Arial" font-size="24px" font-style="normal" font-weight="normal" text-decoration="none" x="400" y="60">UNREGISTERED</text><text fill="#eeeeee" stroke="none" font-family="Arial" font-size="24px" font-style="normal" font-weight="normal" text-decoration="none" x="400" y="90">UNREGISTERED</text><text fill="#eeeeee" stroke="none" font-family="Arial" font-size="24px" font-style="normal" font-weight="normal" text-decoration="none" x="400" y="120">UNREGISTERED</text><text fill="#eeeeee" stroke="none" font-family="Arial" font-size="24px" font-style="normal" font-weight="normal" text-decoration="none" x="400" y="150">UNREGISTERED</text><text fill="#eeeeee" stroke="none" font-family="Arial" font-size="24px" font-style="normal" font-weight="normal" text-decoration="none" x="400" y="180">UNREGISTERED</text><text fill="#eeeeee" stroke="none" font-family="Arial" font-size="24px" font-style="normal" font-weight="normal" text-decoration="none" x="400" y="210">UNREGISTERED</text><text fill="#eeeeee" stroke="none" font-family="Arial" font-size="24px" font-style="normal" font-weight="normal" text-decoration="none" x="400" y="240">UNREGISTERED</text><text fill="#eeeeee" stroke="none" font-family="Arial" font-size="24px" font-style="normal" font-weight="normal" text-decoration="none" x="400" y="270">UNREGISTERED</text><text fill="#eeeeee" stroke="none" font-family="Arial" font-size="24px" font-style="normal" font-weight="normal" text-decoration="none" x="400" y="300">UNREGISTERED</text><text fill="#eeeeee" stroke="none" font-family="Arial" font-size="24px" font-style="normal" font-weight="normal" text-decoration="none" x="400" y="330">UNREGISTERED</text><text fill="#eeeeee" stroke="none" font-family="Arial" font-size="24px" font-style="normal" font-weight="normal" text-decoration="none" x="400" y="360">UNREGISTERED</text><text fill="#eeeeee" stroke="none" font-family="Arial" font-size="24px" font-style="normal" font-weight="normal" text-decoration="none" x="400" y="390">UNREGISTERED</text><text fill="#eeeeee" stroke="none" font-family="Arial" font-size="24px" font-style="normal" font-weight="normal" text-decoration="none" x="400" y="420">UNREGISTERED</text><text fill="#eeeeee" stroke="none" font-family="Arial" font-size="24px" font-style="normal" font-weight="normal" text-decoration="none" x="400" y="450">UNREGISTERED</text><text fill="#eeeeee" stroke="none" font-family="Arial" font-size="24px" font-style="normal" font-weight="normal" text-decoration="none" x="400" y="480">UNREGISTERED</text><text fill="#eeeeee" stroke="none" font-family="Arial" font-size="24px" font-style="normal" font-weight="normal" text-decoration="none" x="400" y="510">UNREGISTERED</text><text fill="#eeeeee" stroke="none" font-family="Arial" font-size="24px" font-style="normal" font-weight="normal" text-decoration="none" x="400" y="540">UNREGISTERED</text><text fill="#eeeeee" stroke="none" font-family="Arial" font-size="24px" font-style="normal" font-weight="normal" text-decoration="none" x="400" y="570">UNREGISTERED</text><text fill="#eeeeee" stroke="none" font-family="Arial" font-size="24px" font-style="normal" font-weight="normal" text-decoration="none" x="400" y="600">UNREGISTERED</text><text fill="#eeeeee" stroke="none" font-family="Arial" font-size="24px" font-style="normal" font-weight="normal" text-decoration="none" x="400" y="630">UNREGISTERED</text><text fill="#eeeeee" stroke="none" font-family="Arial" font-size="24px" font-style="normal" font-weight="normal" text-decoration="none" x="400" y="660">UNREGISTERED</text><text fill="#eeeeee" stroke="none" font-family="Arial" font-size="24px" font-style="normal" font-weight="normal" text-decoration="none" x="400" y="690">UNREGISTERED</text><text fill="#eeeeee" stroke="none" font-family="Arial" font-size="24px" font-style="normal" font-weight="normal" text-decoration="none" x="400" y="720">UNREGISTERED</text><text fill="#eeeeee" stroke="none" font-family="Arial" font-size="24px" font-style="normal" font-weight="normal" text-decoration="none" x="400" y="750">UNREGISTERED</text><text fill="#eeeeee" stroke="none" font-family="Arial" font-size="24px" font-style="normal" font-weight="normal" text-decoration="none" x="400" y="780">UNREGISTERED</text><text fill="#eeeeee" stroke="none" font-family="Arial" font-size="24px" font-style="normal" font-weight="normal" text-decoration="none" x="400" y="810">UNREGISTERED</text><text fill="#eeeeee" stroke="none" font-family="Arial" font-size="24px" font-style="normal" font-weight="normal" text-decoration="none" x="600" y="0">UNREGISTERED</text><text fill="#eeeeee" stroke="none" font-family="Arial" font-size="24px" font-style="normal" font-weight="normal" text-decoration="none" x="600" y="30">UNREGISTERED</text><text fill="#eeeeee" stroke="none" font-family="Arial" font-size="24px" font-style="normal" font-weight="normal" text-decoration="none" x="600" y="60">UNREGISTERED</text><text fill="#eeeeee" stroke="none" font-family="Arial" font-size="24px" font-style="normal" font-weight="normal" text-decoration="none" x="600" y="90">UNREGISTERED</text><text fill="#eeeeee" stroke="none" font-family="Arial" font-size="24px" font-style="normal" font-weight="normal" text-decoration="none" x="600" y="120">UNREGISTERED</text><text fill="#eeeeee" stroke="none" font-family="Arial" font-size="24px" font-style="normal" font-weight="normal" text-decoration="none" x="600" y="150">UNREGISTERED</text><text fill="#eeeeee" stroke="none" font-family="Arial" font-size="24px" font-style="normal" font-weight="normal" text-decoration="none" x="600" y="180">UNREGISTERED</text><text fill="#eeeeee" stroke="none" font-family="Arial" font-size="24px" font-style="normal" font-weight="normal" text-decoration="none" x="600" y="210">UNREGISTERED</text><text fill="#eeeeee" stroke="none" font-family="Arial" font-size="24px" font-style="normal" font-weight="normal" text-decoration="none" x="600" y="240">UNREGISTERED</text><text fill="#eeeeee" stroke="none" font-family="Arial" font-size="24px" font-style="normal" font-weight="normal" text-decoration="none" x="600" y="270">UNREGISTERED</text><text fill="#eeeeee" stroke="none" font-family="Arial" font-size="24px" font-style="normal" font-weight="normal" text-decoration="none" x="600" y="300">UNREGISTERED</text><text fill="#eeeeee" stroke="none" font-family="Arial" font-size="24px" font-style="normal" font-weight="normal" text-decoration="none" x="600" y="330">UNREGISTERED</text><text fill="#eeeeee" stroke="none" font-family="Arial" font-size="24px" font-style="normal" font-weight="normal" text-decoration="none" x="600" y="360">UNREGISTERED</text><text fill="#eeeeee" stroke="none" font-family="Arial" font-size="24px" font-style="normal" font-weight="normal" text-decoration="none" x="600" y="390">UNREGISTERED</text><text fill="#eeeeee" stroke="none" font-family="Arial" font-size="24px" font-style="normal" font-weight="normal" text-decoration="none" x="600" y="420">UNREGISTERED</text><text fill="#eeeeee" stroke="none" font-family="Arial" font-size="24px" font-style="normal" font-weight="normal" text-decoration="none" x="600" y="450">UNREGISTERED</text><text fill="#eeeeee" stroke="none" font-family="Arial" font-size="24px" font-style="normal" font-weight="normal" text-decoration="none" x="600" y="480">UNREGISTERED</text><text fill="#eeeeee" stroke="none" font-family="Arial" font-size="24px" font-style="normal" font-weight="normal" text-decoration="none" x="600" y="510">UNREGISTERED</text><text fill="#eeeeee" stroke="none" font-family="Arial" font-size="24px" font-style="normal" font-weight="normal" text-decoration="none" x="600" y="540">UNREGISTERED</text><text fill="#eeeeee" stroke="none" font-family="Arial" font-size="24px" font-style="normal" font-weight="normal" text-decoration="none" x="600" y="570">UNREGISTERED</text><text fill="#eeeeee" stroke="none" font-family="Arial" font-size="24px" font-style="normal" font-weight="normal" text-decoration="none" x="600" y="600">UNREGISTERED</text><text fill="#eeeeee" stroke="none" font-family="Arial" font-size="24px" font-style="normal" font-weight="normal" text-decoration="none" x="600" y="630">UNREGISTERED</text><text fill="#eeeeee" stroke="none" font-family="Arial" font-size="24px" font-style="normal" font-weight="normal" text-decoration="none" x="600" y="660">UNREGISTERED</text><text fill="#eeeeee" stroke="none" font-family="Arial" font-size="24px" font-style="normal" font-weight="normal" text-decoration="none" x="600" y="690">UNREGISTERED</text><text fill="#eeeeee" stroke="none" font-family="Arial" font-size="24px" font-style="normal" font-weight="normal" text-decoration="none" x="600" y="720">UNREGISTERED</text><text fill="#eeeeee" stroke="none" font-family="Arial" font-size="24px" font-style="normal" font-weight="normal" text-decoration="none" x="600" y="750">UNREGISTERED</text><text fill="#eeeeee" stroke="none" font-family="Arial" font-size="24px" font-style="normal" font-weight="normal" text-decoration="none" x="600" y="780">UNREGISTERED</text><text fill="#eeeeee" stroke="none" font-family="Arial" font-size="24px" font-style="normal" font-weight="normal" text-decoration="none" x="600" y="810">UNREGISTERED</text><g transform="translate(-374,-14) scale(1,1)"><path fill="#C0C0C0" stroke="none" d="M 711 40.5 C 711 35.2532944 715.2532944 31 720.5 31 C 725.7467056 31 730 35.2532944 730 40.5 C 730 45.7467056 725.7467056 50 720.5 50 C 715.2532944 50 711 45.7467056 711 40.5 Z" opacity="0.2"/></g><g transform="translate(-374,-14) scale(1,1)"><path fill="#000000" stroke="none" d="M 704 33.5 C 704 28.2532944 708.2532944 24 713.5 24 C 718.7467056 24 723 28.2532944 723 33.5 C 723 38.7467056 718.7467056 43 713.5 43 C 708.2532944 43 704 38.7467056 704 33.5 Z"/></g><g transform="translate(-374,-14) scale(1,1)"><path fill="#C0C0C0" stroke="none" d="M 711 819.5 C 711 812.59644 716.59644 807 723.5 807 C 730.40356 807 736 812.59644 736 819.5 C 736 826.40356 730.40356 832 723.5 832 C 716.59644 832 711 826.40356 711 819.5 Z" opacity="0.2"/></g><g transform="translate(-374,-14) scale(1,1)"><path fill="none" stroke="#000000" d="M 704 812.5 C 704 805.59644 709.59644 800 716.5 800 C 723.40356 800 729 805.59644 729 812.5 C 729 819.40356 723.40356 825 716.5 825 C 709.59644 825 704 819.40356 704 812.5 Z" stroke-miterlimit="10"/></g><g transform="translate(-374,-14) scale(1,1)"><path fill="#000000" stroke="none" d="M 709 812.5 C 709 808.357864 712.357864 805 716.5 805 C 720.642136 805 724 808.357864 724 812.5 C 724 816.642136 720.642136 820 716.5 820 C 712.357864 820 709 816.642136 709 812.5 Z"/></g><g transform="translate(-374,-14) scale(1,1)"><path fill="#C0C0C0" stroke="none" d="M 481 239 L 597.14990234375 239 Q 607.14990234375 239 607.14990234375 249 L 607.14990234375 276 Q 607.14990234375 286 597.14990234375 286 L 481 286 Q 471 286 471 276 L 471 249 Q 471 239 481 239 Z" opacity="0.2"/></g><g transform="translate(-374,-14) scale(1,1)"><path fill="#ffffff" stroke="none" d="M 474 232 L 590.14990234375 232 Q 600.14990234375 232 600.14990234375 242 L 600.14990234375 269 Q 600.14990234375 279 590.14990234375 279 L 474 279 Q 464 279 464 269 L 464 242 Q 464 232 474 232 Z"/></g><g transform="translate(-374,-14) scale(1,1)"><path fill="none" stroke="#000000" d="M 474 232 L 590.14990234375 232 Q 600.14990234375 232 600.14990234375 242 L 600.14990234375 269 Q 600.14990234375 279 590.14990234375 279 L 474 279 Q 464 279 464 269 L 464 242 Q 464 232 474 232 Z" stroke-miterlimit="10"/></g><g transform="translate(-374,-14) scale(1,1)"><path fill="none" stroke="#000000" d="M 464 257 L 600.14990234375 257" stroke-miterlimit="10"/></g><g transform="translate(-374,-14) scale(1,1)"><g><path fill="none" stroke="none"/><text fill="#000000" stroke="none" font-family="Arial" font-size="13px" font-style="normal" font-weight="bold" text-decoration="none" x="468.5" y="249.5">Selecionando Acoes</text></g></g><g transform="translate(-374,-14) scale(1,1)"><g><path fill="none" stroke="none"/><text fill="#000000" stroke="none" font-family="Arial" font-size="13px" font-style="normal" font-weight="normal" text-decoration="none" x="469" y="272.5">do/selecionaAcoes()</text></g></g><g transform="translate(-374,-14) scale(1,1)"><path fill="#C0C0C0" stroke="none" d="M 481 375 L 586.2890625 375 Q 596.2890625 375 596.2890625 385 L 596.2890625 412 Q 596.2890625 422 586.2890625 422 L 481 422 Q 471 422 471 412 L 471 385 Q 471 375 481 375 Z" opacity="0.2"/></g><g transform="translate(-374,-14) scale(1,1)"><path fill="#ffffff" stroke="none" d="M 474 368 L 579.2890625 368 Q 589.2890625 368 589.2890625 378 L 589.2890625 405 Q 589.2890625 415 579.2890625 415 L 474 415 Q 464 415 464 405 L 464 378 Q 464 368 474 368 Z"/></g><g transform="translate(-374,-14) scale(1,1)"><path fill="none" stroke="#000000" d="M 474 368 L 579.2890625 368 Q 589.2890625 368 589.2890625 378 L 589.2890625 405 Q 589.2890625 415 579.2890625 415 L 474 415 Q 464 415 464 405 L 464 378 Q 464 368 474 368 Z" stroke-miterlimit="10"/></g><g transform="translate(-374,-14) scale(1,1)"><path fill="none" stroke="#000000" d="M 464 393 L 589.2890625 393" stroke-miterlimit="10"/></g><g transform="translate(-374,-14) scale(1,1)"><g><path fill="none" stroke="none"/><text fill="#000000" stroke="none" font-family="Arial" font-size="13px" font-style="normal" font-weight="bold" text-decoration="none" x="468.5" y="385.5">enviando proposta</text></g></g><g transform="translate(-374,-14) scale(1,1)"><g><path fill="none" stroke="none"/><text fill="#000000" stroke="none" font-family="Arial" font-size="13px" font-style="normal" font-weight="normal" text-decoration="none" x="469" y="408.5">do/enviaProposta()</text></g></g><g transform="translate(-374,-14) scale(1,1)"><path fill="#C0C0C0" stroke="none" d="M 881 343 L 1009.4453125 343 Q 1019.4453125 343 1019.4453125 353 L 1019.4453125 380 Q 1019.4453125 390 1009.4453125 390 L 881 390 Q 871 390 871 380 L 871 353 Q 871 343 881 343 Z" opacity="0.2"/></g><g transform="translate(-374,-14) scale(1,1)"><path fill="#ffffff" stroke="none" d="M 874 336 L 1002.4453125 336 Q 1012.4453125 336 1012.4453125 346 L 1012.4453125 373 Q 1012.4453125 383 1002.4453125 383 L 874 383 Q 864 383 864 373 L 864 346 Q 864 336 874 336 Z"/></g><g transform="translate(-374,-14) scale(1,1)"><path fill="none" stroke="#000000" d="M 874 336 L 1002.4453125 336 Q 1012.4453125 336 1012.4453125 346 L 1012.4453125 373 Q 1012.4453125 383 1002.4453125 383 L 874 383 Q 864 383 864 373 L 864 346 Q 864 336 874 336 Z" stroke-miterlimit="10"/></g><g transform="translate(-374,-14) scale(1,1)"><path fill="none" stroke="#000000" d="M 864 361 L 1012.4453125 361" stroke-miterlimit="10"/></g><g transform="translate(-374,-14) scale(1,1)"><g><path fill="none" stroke="none"/><text fill="#000000" stroke="none" font-family="Arial" font-size="13px" font-style="normal" font-weight="bold" text-decoration="none" x="877.789794921875" y="353.5">Avaliando proposta</text></g></g><g transform="translate(-374,-14) scale(1,1)"><g><path fill="none" stroke="none"/><text fill="#000000" stroke="none" font-family="Arial" font-size="13px" font-style="normal" font-weight="normal" text-decoration="none" x="869" y="376.5">do/visualizarPropostas()</text></g></g><g transform="translate(-374,-14) scale(1,1)"><path fill="#C0C0C0" stroke="none" d="M 473 511 L 577.57177734375 511 Q 587.57177734375 511 587.57177734375 521 L 587.57177734375 548 Q 587.57177734375 558 577.57177734375 558 L 473 558 Q 463 558 463 548 L 463 521 Q 463 511 473 511 Z" opacity="0.2"/></g><g transform="translate(-374,-14) scale(1,1)"><path fill="#ffffff" stroke="none" d="M 466 504 L 570.57177734375 504 Q 580.57177734375 504 580.57177734375 514 L 580.57177734375 541 Q 580.57177734375 551 570.57177734375 551 L 466 551 Q 456 551 456 541 L 456 514 Q 456 504 466 504 Z"/></g><g transform="translate(-374,-14) scale(1,1)"><path fill="none" stroke="#000000" d="M 466 504 L 570.57177734375 504 Q 580.57177734375 504 580.57177734375 514 L 580.57177734375 541 Q 580.57177734375 551 570.57177734375 551 L 466 551 Q 456 551 456 541 L 456 514 Q 456 504 466 504 Z" stroke-miterlimit="10"/></g><g transform="translate(-374,-14) scale(1,1)"><path fill="none" stroke="#000000" d="M 456 529 L 580.57177734375 529" stroke-miterlimit="10"/></g><g transform="translate(-374,-14) scale(1,1)"><g><path fill="none" stroke="none"/><text fill="#000000" stroke="none" font-family="Arial" font-size="13px" font-style="normal" font-weight="bold" text-decoration="none" x="461.5791015625" y="521.5">comprando Acoes</text></g></g><g transform="translate(-374,-14) scale(1,1)"><g><path fill="none" stroke="none"/><text fill="#000000" stroke="none" font-family="Arial" font-size="13px" font-style="normal" font-weight="normal" text-decoration="none" x="461" y="544.5">do/comprarAcoes()</text></g></g><g transform="translate(-374,-14) scale(1,1)"><path fill="#C0C0C0" stroke="none" d="M 889 455 L 1007.33984375 455 Q 1017.33984375 455 1017.33984375 465 L 1017.33984375 492 Q 1017.33984375 502 1007.33984375 502 L 889 502 Q 879 502 879 492 L 879 465 Q 879 455 889 455 Z" opacity="0.2"/></g><g transform="translate(-374,-14) scale(1,1)"><path fill="#ffffff" stroke="none" d="M 882 448 L 1000.33984375 448 Q 1010.33984375 448 1010.33984375 458 L 1010.33984375 485 Q 1010.33984375 495 1000.33984375 495 L 882 495 Q 872 495 872 485 L 872 458 Q 872 448 882 448 Z"/></g><g transform="translate(-374,-14) scale(1,1)"><path fill="none" stroke="#000000" d="M 882 448 L 1000.33984375 448 Q 1010.33984375 448 1010.33984375 458 L 1010.33984375 485 Q 1010.33984375 495 1000.33984375 495 L 882 495 Q 872 495 872 485 L 872 458 Q 872 448 882 448 Z" stroke-miterlimit="10"/></g><g transform="translate(-374,-14) scale(1,1)"><path fill="none" stroke="#000000" d="M 872 473 L 1010.33984375 473" stroke-miterlimit="10"/></g><g transform="translate(-374,-14) scale(1,1)"><g><path fill="none" stroke="none"/><text fill="#000000" stroke="none" font-family="Arial" font-size="13px" font-style="normal" font-weight="bold" text-decoration="none" x="877.252197265625" y="465.5">Aprovando proposta</text></g></g><g transform="translate(-374,-14) scale(1,1)"><g><path fill="none" stroke="none"/><text fill="#000000" stroke="none" font-family="Arial" font-size="13px" font-style="normal" font-weight="normal" text-decoration="none" x="877" y="488.5">do/aprovarPropostas()</text></g></g><g transform="translate(-374,-14) scale(1,1)"><path fill="#C0C0C0" stroke="none" d="M 690 119 L 753 119 Q 756 119 756 122 L 756 121 Q 756 124 753 124 L 690 124 Q 687 124 687 121 L 687 122 Q 687 119 690 119 Z" opacity="0.2"/></g><g transform="translate(-374,-14) scale(1,1)"><path fill="#000000" stroke="none" d="M 683 112 L 746 112 Q 749 112 749 115 L 749 115 Q 749 118 746 118 L 683 118 Q 680 118 680 115 L 680 115 Q 680 112 683 112 Z"/></g><g transform="translate(-374,-14) scale(1,1)"><path fill="#C0C0C0" stroke="none" d="M 690 703 L 753 703 Q 756 703 756 706 L 756 705 Q 756 708 753 708 L 690 708 Q 687 708 687 705 L 687 706 Q 687 703 690 703 Z" opacity="0.2"/></g><g transform="translate(-374,-14) scale(1,1)"><path fill="#000000" stroke="none" d="M 683 696 L 746 696 Q 749 696 749 699 L 749 699 Q 749 702 746 702 L 683 702 Q 680 702 680 699 L 680 699 Q 680 696 683 696 Z"/></g><g transform="translate(-374,-14) scale(1,1)"><path fill="none" stroke="#000000" d="M 709 118 L 563 231" stroke-miterlimit="10"/></g><g transform="translate(-374,-14) scale(1,1)"><path fill="none" stroke="#000000" d="M 568.4602333739643 221.45087168890032 L 563 231 L 573.6132214287903 228.1087146623923" stroke-miterlimit="10"/></g><g transform="translate(-374,-14) scale(1,1)"><g><path fill="none" stroke="none"/><text fill="#000000" stroke="none" font-family="Arial" font-size="13px" font-style="normal" font-weight="normal" text-decoration="none" x="525.5" y="174.5"> [caso comprando]</text></g></g><g transform="translate(-374,-14) scale(1,1)"><path fill="none" stroke="#000000" d="M 713 44 L 714 111" stroke-miterlimit="10"/></g><g transform="translate(-374,-14) scale(1,1)"><path fill="none" stroke="#000000" d="M 709.6392862136918 100.90127853271012 L 714 111 L 718.0573841417227 100.77563528005295" stroke-miterlimit="10"/></g><g transform="translate(-374,-14) scale(1,1)"><path fill="#C0C0C0" stroke="none" d="M 889 575 L 982.7490234375 575 Q 992.7490234375 575 992.7490234375 585 L 992.7490234375 612 Q 992.7490234375 622 982.7490234375 622 L 889 622 Q 879 622 879 612 L 879 585 Q 879 575 889 575 Z" opacity="0.2"/></g><g transform="translate(-374,-14) scale(1,1)"><path fill="#ffffff" stroke="none" d="M 882 568 L 975.7490234375 568 Q 985.7490234375 568 985.7490234375 578 L 985.7490234375 605 Q 985.7490234375 615 975.7490234375 615 L 882 615 Q 872 615 872 605 L 872 578 Q 872 568 882 568 Z"/></g><g transform="translate(-374,-14) scale(1,1)"><path fill="none" stroke="#000000" d="M 882 568 L 975.7490234375 568 Q 985.7490234375 568 985.7490234375 578 L 985.7490234375 605 Q 985.7490234375 615 975.7490234375 615 L 882 615 Q 872 615 872 605 L 872 578 Q 872 568 882 568 Z" stroke-miterlimit="10"/></g><g transform="translate(-374,-14) scale(1,1)"><path fill="none" stroke="#000000" d="M 872 593 L 985.7490234375 593" stroke-miterlimit="10"/></g><g transform="translate(-374,-14) scale(1,1)"><g><path fill="none" stroke="none"/><text fill="#000000" stroke="none" font-family="Arial" font-size="13px" font-style="normal" font-weight="bold" text-decoration="none" x="876.5" y="585.5">Vendendo Acoes</text></g></g><g transform="translate(-374,-14) scale(1,1)"><g><path fill="none" stroke="none"/><text fill="#000000" stroke="none" font-family="Arial" font-size="13px" font-style="normal" font-weight="normal" text-decoration="none" x="877" y="608.5">do/venderAcoes()</text></g></g><g transform="translate(-374,-14) scale(1,1)"><path fill="none" stroke="#000000" d="M 547 552 L 711 695" stroke-miterlimit="10"/></g><g transform="translate(-374,-14) scale(1,1)"><path fill="none" stroke="#000000" d="M 700.5737419309539 691.493842177304 L 711 695 L 706.1067501893152 685.148294244638" stroke-miterlimit="10"/></g><g transform="translate(-374,-14) scale(1,1)"><path fill="none" stroke="#000000" d="M 878 616 L 720 695" stroke-miterlimit="10"/></g><g transform="translate(-374,-14) scale(1,1)"><path fill="none" stroke="#000000" d="M 727.2072191549614 686.6900064950472 L 720 695 L 730.9723262969391 694.2202207790025" stroke-miterlimit="10"/></g><g transform="translate(-374,-14) scale(1,1)"><path fill="none" stroke="#000000" d="M 531 280 L 527 367" stroke-miterlimit="10"/></g><g transform="translate(-374,-14) scale(1,1)"><path fill="none" stroke="#000000" d="M 523.2616807664106 356.65471270056867 L 527 367 L 531.6718319224398 357.04138631693786" stroke-miterlimit="10"/></g><g transform="translate(-374,-14) scale(1,1)"><g><path fill="none" stroke="none"/><text fill="#000000" stroke="none" font-family="Arial" font-size="13px" font-style="normal" font-weight="normal" text-decoration="none" x="386.435546875" y="321.5"> [se acoes maior que 0]</text></g></g><g transform="translate(-374,-14) scale(1,1)"><path fill="none" stroke="#000000" d="M 525 416 L 519 503" stroke-miterlimit="10"/></g><g transform="translate(-374,-14) scale(1,1)"><path fill="none" stroke="#000000" d="M 515.4996707051749 492.57178371782646 L 519 503 L 523.8987558680482 493.1510309704384" stroke-miterlimit="10"/></g><g transform="translate(-374,-14) scale(1,1)"><g><path fill="none" stroke="none"/><text fill="#000000" stroke="none" font-family="Arial" font-size="13px" font-style="normal" font-weight="normal" text-decoration="none" x="517.5" y="466.5"> [se aprovada]</text></g></g><g transform="translate(-374,-14) scale(1,1)"><path fill="none" stroke="#000000" d="M 938 496 L 931 567" stroke-miterlimit="10"/></g><g transform="translate(-374,-14) scale(1,1)"><path fill="none" stroke="#000000" d="M 927.807912598476 556.4733396549033 L 931 567 L 936.1863262655077 557.2993804389769" stroke-miterlimit="10"/></g><g transform="translate(-374,-14) scale(1,1)"><g><path fill="none" stroke="none"/><text fill="#000000" stroke="none" font-family="Arial" font-size="13px" font-style="normal" font-weight="normal" text-decoration="none" x="941.5" y="536.5"> [se confirmado]</text></g></g><g transform="translate(-374,-14) scale(1,1)"><path fill="none" stroke="#000000" d="M 939 384 L 940 447" stroke-miterlimit="10"/></g><g transform="translate(-374,-14) scale(1,1)"><path fill="none" stroke="#000000" d="M 935.6297204617009 436.9054144831438 L 940 447 L 944.0476955750245 436.7717958305513" stroke-miterlimit="10"/></g><g transform="translate(-374,-14) scale(1,1)"><g><path fill="none" stroke="none"/><text fill="#000000" stroke="none" font-family="Arial" font-size="13px" font-style="normal" font-weight="normal" text-decoration="none" x="942.5" y="418.5"> [se favoravel]</text></g></g><g transform="translate(-374,-14) scale(1,1)"><path fill="#C0C0C0" stroke="none" d="M 865 223 L 966.68994140625 223 Q 976.68994140625 223 976.68994140625 233 L 976.68994140625 260 Q 976.68994140625 270 966.68994140625 270 L 865 270 Q 855 270 855 260 L 855 233 Q 855 223 865 223 Z" opacity="0.2"/></g><g transform="translate(-374,-14) scale(1,1)"><path fill="#ffffff" stroke="none" d="M 858 216 L 959.68994140625 216 Q 969.68994140625 216 969.68994140625 226 L 969.68994140625 253 Q 969.68994140625 263 959.68994140625 263 L 858 263 Q 848 263 848 253 L 848 226 Q 848 216 858 216 Z"/></g><g transform="translate(-374,-14) scale(1,1)"><path fill="none" stroke="#000000" d="M 858 216 L 959.68994140625 216 Q 969.68994140625 216 969.68994140625 226 L 969.68994140625 253 Q 969.68994140625 263 959.68994140625 263 L 858 263 Q 848 263 848 253 L 848 226 Q 848 216 858 216 Z" stroke-miterlimit="10"/></g><g transform="translate(-374,-14) scale(1,1)"><path fill="none" stroke="#000000" d="M 848 241 L 969.68994140625 241" stroke-miterlimit="10"/></g><g transform="translate(-374,-14) scale(1,1)"><g><path fill="none" stroke="none"/><text fill="#000000" stroke="none" font-family="Arial" font-size="13px" font-style="normal" font-weight="bold" text-decoration="none" x="852.5" y="233.5">Publicando Acoes</text></g></g><g transform="translate(-374,-14) scale(1,1)"><g><path fill="none" stroke="none"/><text fill="#000000" stroke="none" font-family="Arial" font-size="13px" font-style="normal" font-weight="normal" text-decoration="none" x="853" y="256.5">do/publicar()</text></g></g><g transform="translate(-374,-14) scale(1,1)"><path fill="none" stroke="#000000" d="M 720 118 L 871 215" stroke-miterlimit="10"/></g><g transform="translate(-374,-14) scale(1,1)"><path fill="none" stroke="#000000" d="M 860.1743942169862 213.0490362815318 L 871 215 L 864.7246804155565 205.9656010652009" stroke-miterlimit="10"/></g><g transform="translate(-374,-14) scale(1,1)"><g><path fill="none" stroke="none"/><text fill="#000000" stroke="none" font-family="Arial" font-size="13px" font-style="normal" font-weight="normal" text-decoration="none" x="799.5" y="171.5"> [caso vendendo]</text></g></g><g transform="translate(-374,-14) scale(1,1)"><path fill="none" stroke="#000000" d="M 914 264 L 932 335" stroke-miterlimit="10"/></g><g transform="translate(-374,-14) scale(1,1)"><path fill="none" stroke="#000000" d="M 925.4221274387307 326.1834478072377 L 932 335 L 933.582985548333 324.11449786395826" stroke-miterlimit="10"/></g><g transform="translate(-374,-14) scale(1,1)"><g><path fill="none" stroke="none"/><text fill="#000000" stroke="none" font-family="Arial" font-size="13px" font-style="normal" font-weight="normal" text-decoration="none" x="875.5" y="299.5"> [se recebe proposta]</text></g></g><g transform="translate(-374,-14) scale(1,1)"><path fill="none" stroke="#000000" d="M 714 702 L 716 799" stroke-miterlimit="10"/></g><g transform="translate(-374,-14) scale(1,1)"><path fill="none" stroke="#000000" d="M 711.5818815824397 788.9262603940535 L 716 799 L 719.9991280941301 788.7527089195856" stroke-miterlimit="10"/></g></g></svg>