<svg version="1.1" xmlns="http://www.w3.org/2000/svg" xmlns:xlink="http://www.w3.org/1999/xlink" width="198.04443359375" height="524"><defs/><g><text fill="#eeeeee" stroke="none" font-family="Arial" font-size="24px" font-style="normal" font-weight="normal" text-decoration="none" x="0" y="0">UNREGISTERED</text><text fill="#eeeeee" stroke="none" font-family="Arial" font-size="24px" font-style="normal" font-weight="normal" text-decoration="none" x="0" y="30">UNREGISTERED</text><text fill="#eeeeee" stroke="none" font-family="Arial" font-size="24px" font-style="normal" font-weight="normal" text-decoration="none" x="0" y="60">UNREGISTERED</text><text fill="#eeeeee" stroke="none" font-family="Arial" font-size="24px" font-style="normal" font-weight="normal" text-decoration="none" x="0" y="90">UNREGISTERED</text><text fill="#eeeeee" stroke="none" font-family="Arial" font-size="24px" font-style="normal" font-weight="normal" text-decoration="none" x="0" y="120">UNREGISTERED</text><text fill="#eeeeee" stroke="none" font-family="Arial" font-size="24px" font-style="normal" font-weight="normal" text-decoration="none" x="0" y="150">UNREGISTERED</text><text fill="#eeeeee" stroke="none" font-family="Arial" font-size="24px" font-style="normal" font-weight="normal" text-decoration="none" x="0" y="180">UNREGISTERED</text><text fill="#eeeeee" stroke="none" font-family="Arial" font-size="24px" font-style="normal" font-weight="normal" text-decoration="none" x="0" y="210">UNREGISTERED</text><text fill="#eeeeee" stroke="none" font-family="Arial" font-size="24px" font-style="normal" font-weight="normal" text-decoration="none" x="0" y="240">UNREGISTERED</text><text fill="#eeeeee" stroke="none" font-family="Arial" font-size="24px" font-style="normal" font-weight="normal" text-decoration="none" x="0" y="270">UNREGISTERED</text><text fill="#eeeeee" stroke="none" font-family="Arial" font-size="24px" font-style="normal" font-weight="normal" text-decoration="none" x="0" y="300">UNREGISTERED</text><text fill="#eeeeee" stroke="none" font-family="Arial" font-size="24px" font-style="normal" font-weight="normal" text-decoration="none" x="0" y="330">UNREGISTERED</text><text fill="#eeeeee" stroke="none" font-family="Arial" font-size="24px" font-style="normal" font-weight="normal" text-decoration="none" x="0" y="360">UNREGISTERED</text><text fill="#eeeeee" stroke="none" font-family="Arial" font-size="24px" font-style="normal" font-weight="normal" text-decoration="none" x="0" y="390">UNREGISTERED</text><text fill="#eeeeee" stroke="none" font-family="Arial" font-size="24px" font-style="normal" font-weight="normal" text-decoration="none" x="0" y="420">UNREGISTERED</text><text fill="#eeeeee" stroke="none" font-family="Arial" font-size="24px" font-style="normal" font-weight="normal" text-decoration="none" x="0" y="450">UNREGISTERED</text><text fill="#eeeeee" stroke="none" font-family="Arial" font-size="24px" font-style="normal" font-weight="normal" text-decoration="none" x="0" y="480">UNREGISTERED</text><text fill="#eeeeee" stroke="none" font-family="Arial" font-size="24px" font-style="normal" font-weight="normal" text-decoration="none" x="0" y="510">UNREGISTERED</text><g transform="translate(-550,-119) scale(1,1)"><path fill="#C0C0C0" stroke="none" d="M 649 145.5 C 649 140.2532944 653.2532944 136 658.5 136 C 663.7467056 136 668 140.2532944 668 145.5 C 668 150.7467056 663.7467056 155 658.5 155 C 653.2532944 155 649 150.7467056 649 145.5 Z" opacity="0.2"/></g><g transform="translate(-550,-119) scale(1,1)"><path fill="#000000" stroke="none" d="M 642 138.5 C 642 133.2532944 646.2532944 129 651.5 129 C 656.7467056 129 661 133.2532944 661 138.5 C 661 143.7467056 656.7467056 148 651.5 148 C 646.2532944 148 642 143.7467056 642 138.5 Z"/></g><g transform="translate(-550,-119) scale(1,1)"><path fill="#C0C0C0" stroke="none" d="M 615 627.5 C 615 620.59644 620.59644 615 627.5 615 C 634.40356 615 640 620.59644 640 627.5 C 640 634.40356 634.40356 640 627.5 640 C 620.59644 640 615 634.40356 615 627.5 Z" opacity="0.2"/></g><g transform="translate(-550,-119) scale(1,1)"><path fill="none" stroke="#000000" d="M 608 620.5 C 608 613.59644 613.59644 608 620.5 608 C 627.40356 608 633 613.59644 633 620.5 C 633 627.40356 627.40356 633 620.5 633 C 613.59644 633 608 627.40356 608 620.5 Z" stroke-miterlimit="10"/></g><g transform="translate(-550,-119) scale(1,1)"><path fill="#000000" stroke="none" d="M 613 620.5 C 613 616.357864 616.357864 613 620.5 613 C 624.642136 613 628 616.357864 628 620.5 C 628 624.642136 624.642136 628 620.5 628 C 616.357864 628 613 624.642136 613 620.5 Z"/></g><g transform="translate(-550,-119) scale(1,1)"><path fill="#C0C0C0" stroke="none" d="M 593 287 L 701.17724609375 287 Q 711.17724609375 287 711.17724609375 297 L 711.17724609375 324 Q 711.17724609375 334 701.17724609375 334 L 593 334 Q 583 334 583 324 L 583 297 Q 583 287 593 287 Z" opacity="0.2"/></g><g transform="translate(-550,-119) scale(1,1)"><path fill="#ffffff" stroke="none" d="M 586 280 L 694.17724609375 280 Q 704.17724609375 280 704.17724609375 290 L 704.17724609375 317 Q 704.17724609375 327 694.17724609375 327 L 586 327 Q 576 327 576 317 L 576 290 Q 576 280 586 280 Z"/></g><g transform="translate(-550,-119) scale(1,1)"><path fill="none" stroke="#000000" d="M 586 280 L 694.17724609375 280 Q 704.17724609375 280 704.17724609375 290 L 704.17724609375 317 Q 704.17724609375 327 694.17724609375 327 L 586 327 Q 576 327 576 317 L 576 290 Q 576 280 586 280 Z" stroke-miterlimit="10"/></g><g transform="translate(-550,-119) scale(1,1)"><path fill="none" stroke="#000000" d="M 576 305 L 704.17724609375 305" stroke-miterlimit="10"/></g><g transform="translate(-550,-119) scale(1,1)"><g><path fill="none" stroke="none"/><text fill="#000000" stroke="none" font-family="Arial" font-size="13px" font-style="normal" font-weight="bold" text-decoration="none" x="580.5" y="297.5">Atualizando Ordem</text></g></g><g transform="translate(-550,-119) scale(1,1)"><g><path fill="none" stroke="none"/><text fill="#000000" stroke="none" font-family="Arial" font-size="13px" font-style="normal" font-weight="normal" text-decoration="none" x="581" y="320.5">do/atualizaOrdem()</text></g></g><g transform="translate(-550,-119) scale(1,1)"><path fill="#C0C0C0" stroke="none" d="M 577 447 L 681.57177734375 447 Q 691.57177734375 447 691.57177734375 457 L 691.57177734375 484 Q 691.57177734375 494 681.57177734375 494 L 577 494 Q 567 494 567 484 L 567 457 Q 567 447 577 447 Z" opacity="0.2"/></g><g transform="translate(-550,-119) scale(1,1)"><path fill="#ffffff" stroke="none" d="M 570 440 L 674.57177734375 440 Q 684.57177734375 440 684.57177734375 450 L 684.57177734375 477 Q 684.57177734375 487 674.57177734375 487 L 570 487 Q 560 487 560 477 L 560 450 Q 560 440 570 440 Z"/></g><g transform="translate(-550,-119) scale(1,1)"><path fill="none" stroke="#000000" d="M 570 440 L 674.57177734375 440 Q 684.57177734375 440 684.57177734375 450 L 684.57177734375 477 Q 684.57177734375 487 674.57177734375 487 L 570 487 Q 560 487 560 477 L 560 450 Q 560 440 570 440 Z" stroke-miterlimit="10"/></g><g transform="translate(-550,-119) scale(1,1)"><path fill="none" stroke="#000000" d="M 560 465 L 684.57177734375 465" stroke-miterlimit="10"/></g><g transform="translate(-550,-119) scale(1,1)"><g><path fill="none" stroke="none"/><text fill="#000000" stroke="none" font-family="Arial" font-size="13px" font-style="normal" font-weight="bold" text-decoration="none" x="564.5" y="457.5">Publicando Ordem</text></g></g><g transform="translate(-550,-119) scale(1,1)"><g><path fill="none" stroke="none"/><text fill="#000000" stroke="none" font-family="Arial" font-size="13px" font-style="normal" font-weight="normal" text-decoration="none" x="565" y="480.5">do/publicaOrdem()</text></g></g><g transform="translate(-550,-119) scale(1,1)"><path fill="none" stroke="#000000" d="M 650 149 L 642 279" stroke-miterlimit="10"/></g><g transform="translate(-550,-119) scale(1,1)"><path fill="none" stroke="#000000" d="M 638.422644909104 268.59795546281214 L 642 279 L 646.8257841869652 269.11507172606514" stroke-miterlimit="10"/></g><g transform="translate(-550,-119) scale(1,1)"><g><path fill="none" stroke="none"/><text fill="#000000" stroke="none" font-family="Arial" font-size="13px" font-style="normal" font-weight="normal" text-decoration="none" x="647.5" y="218.5"> [se necessario]</text></g></g><g transform="translate(-550,-119) scale(1,1)"><path fill="none" stroke="#000000" d="M 637 328 L 625 439" stroke-miterlimit="10"/></g><g transform="translate(-550,-119) scale(1,1)"><path fill="none" stroke="#000000" d="M 621.9071708034202 428.4437503079558 L 625 439 L 630.2774352431895 429.3486437609038" stroke-miterlimit="10"/></g><g transform="translate(-550,-119) scale(1,1)"><g><path fill="none" stroke="none"/><text fill="#000000" stroke="none" font-family="Arial" font-size="13px" font-style="normal" font-weight="normal" text-decoration="none" x="634.5" y="388.5"> [se ok]</text></g></g><g transform="translate(-550,-119) scale(1,1)"><path fill="none" stroke="#000000" d="M 622 488 L 620 607" stroke-miterlimit="10"/></g><g transform="translate(-550,-119) scale(1,1)"><path fill="none" stroke="#000000" d="M 615.9618537811857 596.7680219353501 L 620 607 L 624.3797004997195 596.9094983507877" stroke-miterlimit="10"/></g></g></svg>