<svg version="1.1" xmlns="http://www.w3.org/2000/svg" xmlns:xlink="http://www.w3.org/1999/xlink" width="914.7744140625" height="621"><defs/><g><text fill="#eeeeee" stroke="none" font-family="Arial" font-size="24px" font-style="normal" font-weight="normal" text-decoration="none" x="0" y="0">UNREGISTERED</text><text fill="#eeeeee" stroke="none" font-family="Arial" font-size="24px" font-style="normal" font-weight="normal" text-decoration="none" x="0" y="30">UNREGISTERED</text><text fill="#eeeeee" stroke="none" font-family="Arial" font-size="24px" font-style="normal" font-weight="normal" text-decoration="none" x="0" y="60">UNREGISTERED</text><text fill="#eeeeee" stroke="none" font-family="Arial" font-size="24px" font-style="normal" font-weight="normal" text-decoration="none" x="0" y="90">UNREGISTERED</text><text fill="#eeeeee" stroke="none" font-family="Arial" font-size="24px" font-style="normal" font-weight="normal" text-decoration="none" x="0" y="120">UNREGISTERED</text><text fill="#eeeeee" stroke="none" font-family="Arial" font-size="24px" font-style="normal" font-weight="normal" text-decoration="none" x="0" y="150">UNREGISTERED</text><text fill="#eeeeee" stroke="none" font-family="Arial" font-size="24px" font-style="normal" font-weight="normal" text-decoration="none" x="0" y="180">UNREGISTERED</text><text fill="#eeeeee" stroke="none" font-family="Arial" font-size="24px" font-style="normal" font-weight="normal" text-decoration="none" x="0" y="210">UNREGISTERED</text><text fill="#eeeeee" stroke="none" font-family="Arial" font-size="24px" font-style="normal" font-weight="normal" text-decoration="none" x="0" y="240">UNREGISTERED</text><text fill="#eeeeee" stroke="none" font-family="Arial" font-size="24px" font-style="normal" font-weight="normal" text-decoration="none" x="0" y="270">UNREGISTERED</text><text fill="#eeeeee" stroke="none" font-family="Arial" font-size="24px" font-style="normal" font-weight="normal" text-decoration="none" x="0" y="300">UNREGISTERED</text><text fill="#eeeeee" stroke="none" font-family="Arial" font-size="24px" font-style="normal" font-weight="normal" text-decoration="none" x="0" y="330">UNREGISTERED</text><text fill="#eeeeee" stroke="none" font-family="Arial" font-size="24px" font-style="normal" font-weight="normal" text-decoration="none" x="0" y="360">UNREGISTERED</text><text fill="#eeeeee" stroke="none" font-family="Arial" font-size="24px" font-style="normal" font-weight="normal" text-decoration="none" x="0" y="390">UNREGISTERED</text><text fill="#eeeeee" stroke="none" font-family="Arial" font-size="24px" font-style="normal" font-weight="normal" text-decoration="none" x="0" y="420">UNREGISTERED</text><text fill="#eeeeee" stroke="none" font-family="Arial" font-size="24px" font-style="normal" font-weight="normal" text-decoration="none" x="0" y="450">UNREGISTERED</text><text fill="#eeeeee" stroke="none" font-family="Arial" font-size="24px" font-style="normal" font-weight="normal" text-decoration="none" x="0" y="480">UNREGISTERED</text><text fill="#eeeeee" stroke="none" font-family="Arial" font-size="24px" font-style="normal" font-weight="normal" text-decoration="none" x="0" y="510">UNREGISTERED</text><text fill="#eeeeee" stroke="none" font-family="Arial" font-size="24px" font-style="normal" font-weight="normal" text-decoration="none" x="0" y="540">UNREGISTERED</text><text fill="#eeeeee" stroke="none" font-family="Arial" font-size="24px" font-style="normal" font-weight="normal" text-decoration="none" x="0" y="570">UNREGISTERED</text><text fill="#eeeeee" stroke="none" font-family="Arial" font-size="24px" font-style="normal" font-weight="normal" text-decoration="none" x="0" y="600">UNREGISTERED</text><text fill="#eeeeee" stroke="none" font-family="Arial" font-size="24px" font-style="normal" font-weight="normal" text-decoration="none" x="200" y="0">UNREGISTERED</text><text fill="#eeeeee" stroke="none" font-family="Arial" font-size="24px" font-style="normal" font-weight="normal" text-decoration="none" x="200" y="30">UNREGISTERED</text><text fill="#eeeeee" stroke="none" font-family="Arial" font-size="24px" font-style="normal" font-weight="normal" text-decoration="none" x="200" y="60">UNREGISTERED</text><text fill="#eeeeee" stroke="none" font-family="Arial" font-size="24px" font-style="normal" font-weight="normal" text-decoration="none" x="200" y="90">UNREGISTERED</text><text fill="#eeeeee" stroke="none" font-family="Arial" font-size="24px" font-style="normal" font-weight="normal" text-decoration="none" x="200" y="120">UNREGISTERED</text><text fill="#eeeeee" stroke="none" font-family="Arial" font-size="24px" font-style="normal" font-weight="normal" text-decoration="none" x="200" y="150">UNREGISTERED</text><text fill="#eeeeee" stroke="none" font-family="Arial" font-size="24px" font-style="normal" font-weight="normal" text-decoration="none" x="200" y="180">UNREGISTERED</text><text fill="#eeeeee" stroke="none" font-family="Arial" font-size="24px" font-style="normal" font-weight="normal" text-decoration="none" x="200" y="210">UNREGISTERED</text><text fill="#eeeeee" stroke="none" font-family="Arial" font-size="24px" font-style="normal" font-weight="normal" text-decoration="none" x="200" y="240">UNREGISTERED</text><text fill="#eeeeee" stroke="none" font-family="Arial" font-size="24px" font-style="normal" font-weight="normal" text-decoration="none" x="200" y="270">UNREGISTERED</text><text fill="#eeeeee" stroke="none" font-family="Arial" font-size="24px" font-style="normal" font-weight="normal" text-decoration="none" x="200" y="300">UNREGISTERED</text><text fill="#eeeeee" stroke="none" font-family="Arial" font-size="24px" font-style="normal" font-weight="normal" text-decoration="none" x="200" y="330">UNREGISTERED</text><text fill="#eeeeee" stroke="none" font-family="Arial" font-size="24px" font-style="normal" font-weight="normal" text-decoration="none" x="200" y="360">UNREGISTERED</text><text fill="#eeeeee" stroke="none" font-family="Arial" font-size="24px" font-style="normal" font-weight="normal" text-decoration="none" x="200" y="390">UNREGISTERED</text><text fill="#eeeeee" stroke="none" font-family="Arial" font-size="24px" font-style="normal" font-weight="normal" text-decoration="none" x="200" y="420">UNREGISTERED</text><text fill="#eeeeee" stroke="none" font-family="Arial" font-size="24px" font-style="normal" font-weight="normal" text-decoration="none" x="200" y="450">UNREGISTERED</text><text fill="#eeeeee" stroke="none" font-family="Arial" font-size="24px" font-style="normal" font-weight="normal" text-decoration="none" x="200" y="480">UNREGISTERED</text><text fill="#eeeeee" stroke="none" font-family="Arial" font-size="24px" font-style="normal" font-weight="normal" text-decoration="none" x="200" y="510">UNREGISTERED</text><text fill="#eeeeee" stroke="none" font-family="Arial" font-size="24px" font-style="normal" font-weight="normal" text-decoration="none" x="200" y="540">UNREGISTERED</text><text fill="#eeeeee" stroke="none" font-family="Arial" font-size="24px" font-style="normal" font-weight="normal" text-decoration="none" x="200" y="570">UNREGISTERED</text><text fill="#eeeeee" stroke="none" font-family="Arial" font-size="24px" font-style="normal" font-weight="normal" text-decoration="none" x="200" y="600">UNREGISTERED</text><text fill="#eeeeee" stroke="none" font-family="Arial" font-size="24px" font-style="normal" font-weight="normal" text-decoration="none" x="400" y="0">UNREGISTERED</text><text fill="#eeeeee" stroke="none" font-family="Arial" font-size="24px" font-style="normal" font-weight="normal" text-decoration="none" x="400" y="30">UNREGISTERED</text><text fill="#eeeeee" stroke="none" font-family="Arial" font-size="24px" font-style="normal" font-weight="normal" text-decoration="none" x="400" y="60">UNREGISTERED</text><text fill="#eeeeee" stroke="none" font-family="Arial" font-size="24px" font-style="normal" font-weight="normal" text-decoration="none" x="400" y="90">UNREGISTERED</text><text fill="#eeeeee" stroke="none" font-family="Arial" font-size="24px" font-style="normal" font-weight="normal" text-decoration="none" x="400" y="120">UNREGISTERED</text><text fill="#eeeeee" stroke="none" font-family="Arial" font-size="24px" font-style="normal" font-weight="normal" text-decoration="none" x="400" y="150">UNREGISTERED</text><text fill="#eeeeee" stroke="none" font-family="Arial" font-size="24px" font-style="normal" font-weight="normal" text-decoration="none" x="400" y="180">UNREGISTERED</text><text fill="#eeeeee" stroke="none" font-family="Arial" font-size="24px" font-style="normal" font-weight="normal" text-decoration="none" x="400" y="210">UNREGISTERED</text><text fill="#eeeeee" stroke="none" font-family="Arial" font-size="24px" font-style="normal" font-weight="normal" text-decoration="none" x="400" y="240">UNREGISTERED</text><text fill="#eeeeee" stroke="none" font-family="Arial" font-size="24px" font-style="normal" font-weight="normal" text-decoration="none" x="400" y="270">UNREGISTERED</text><text fill="#eeeeee" stroke="none" font-family="Arial" font-size="24px" font-style="normal" font-weight="normal" text-decoration="none" x="400" y="300">UNREGISTERED</text><text fill="#eeeeee" stroke="none" font-family="Arial" font-size="24px" font-style="normal" font-weight="normal" text-decoration="none" x="400" y="330">UNREGISTERED</text><text fill="#eeeeee" stroke="none" font-family="Arial" font-size="24px" font-style="normal" font-weight="normal" text-decoration="none" x="400" y="360">UNREGISTERED</text><text fill="#eeeeee" stroke="none" font-family="Arial" font-size="24px" font-style="normal" font-weight="normal" text-decoration="none" x="400" y="390">UNREGISTERED</text><text fill="#eeeeee" stroke="none" font-family="Arial" font-size="24px" font-style="normal" font-weight="normal" text-decoration="none" x="400" y="420">UNREGISTERED</text><text fill="#eeeeee" stroke="none" font-family="Arial" font-size="24px" font-style="normal" font-weight="normal" text-decoration="none" x="400" y="450">UNREGISTERED</text><text fill="#eeeeee" stroke="none" font-family="Arial" font-size="24px" font-style="normal" font-weight="normal" text-decoration="none" x="400" y="480">UNREGISTERED</text><text fill="#eeeeee" stroke="none" font-family="Arial" font-size="24px" font-style="normal" font-weight="normal" text-decoration="none" x="400" y="510">UNREGISTERED</text><text fill="#eeeeee" stroke="none" font-family="Arial" font-size="24px" font-style="normal" font-weight="normal" text-decoration="none" x="400" y="540">UNREGISTERED</text><text fill="#eeeeee" stroke="none" font-family="Arial" font-size="24px" font-style="normal" font-weight="normal" text-decoration="none" x="400" y="570">UNREGISTERED</text><text fill="#eeeeee" stroke="none" font-family="Arial" font-size="24px" font-style="normal" font-weight="normal" text-decoration="none" x="400" y="600">UNREGISTERED</text><text fill="#eeeeee" stroke="none" font-family="Arial" font-size="24px" font-style="normal" font-weight="normal" text-decoration="none" x="600" y="0">UNREGISTERED</text><text fill="#eeeeee" stroke="none" font-family="Arial" font-size="24px" font-style="normal" font-weight="normal" text-decoration="none" x="600" y="30">UNREGISTERED</text><text fill="#eeeeee" stroke="none" font-family="Arial" font-size="24px" font-style="normal" font-weight="normal" text-decoration="none" x="600" y="60">UNREGISTERED</text><text fill="#eeeeee" stroke="none" font-family="Arial" font-size="24px" font-style="normal" font-weight="normal" text-decoration="none" x="600" y="90">UNREGISTERED</text><text fill="#eeeeee" stroke="none" font-family="Arial" font-size="24px" font-style="normal" font-weight="normal" text-decoration="none" x="600" y="120">UNREGISTERED</text><text fill="#eeeeee" stroke="none" font-family="Arial" font-size="24px" font-style="normal" font-weight="normal" text-decoration="none" x="600" y="150">UNREGISTERED</text><text fill="#eeeeee" stroke="none" font-family="Arial" font-size="24px" font-style="normal" font-weight="normal" text-decoration="none" x="600" y="180">UNREGISTERED</text><text fill="#eeeeee" stroke="none" font-family="Arial" font-size="24px" font-style="normal" font-weight="normal" text-decoration="none" x="600" y="210">UNREGISTERED</text><text fill="#eeeeee" stroke="none" font-family="Arial" font-size="24px" font-style="normal" font-weight="normal" text-decoration="none" x="600" y="240">UNREGISTERED</text><text fill="#eeeeee" stroke="none" font-family="Arial" font-size="24px" font-style="normal" font-weight="normal" text-decoration="none" x="600" y="270">UNREGISTERED</text><text fill="#eeeeee" stroke="none" font-family="Arial" font-size="24px" font-style="normal" font-weight="normal" text-decoration="none" x="600" y="300">UNREGISTERED</text><text fill="#eeeeee" stroke="none" font-family="Arial" font-size="24px" font-style="normal" font-weight="normal" text-decoration="none" x="600" y="330">UNREGISTERED</text><text fill="#eeeeee" stroke="none" font-family="Arial" font-size="24px" font-style="normal" font-weight="normal" text-decoration="none" x="600" y="360">UNREGISTERED</text><text fill="#eeeeee" stroke="none" font-family="Arial" font-size="24px" font-style="normal" font-weight="normal" text-decoration="none" x="600" y="390">UNREGISTERED</text><text fill="#eeeeee" stroke="none" font-family="Arial" font-size="24px" font-style="normal" font-weight="normal" text-decoration="none" x="600" y="420">UNREGISTERED</text><text fill="#eeeeee" stroke="none" font-family="Arial" font-size="24px" font-style="normal" font-weight="normal" text-decoration="none" x="600" y="450">UNREGISTERED</text><text fill="#eeeeee" stroke="none" font-family="Arial" font-size="24px" font-style="normal" font-weight="normal" text-decoration="none" x="600" y="480">UNREGISTERED</text><text fill="#eeeeee" stroke="none" font-family="Arial" font-size="24px" font-style="normal" font-weight="normal" text-decoration="none" x="600" y="510">UNREGISTERED</text><text fill="#eeeeee" stroke="none" font-family="Arial" font-size="24px" font-style="normal" font-weight="normal" text-decoration="none" x="600" y="540">UNREGISTERED</text><text fill="#eeeeee" stroke="none" font-family="Arial" font-size="24px" font-style="normal" font-weight="normal" text-decoration="none" x="600" y="570">UNREGISTERED</text><text fill="#eeeeee" stroke="none" font-family="Arial" font-size="24px" font-style="normal" font-weight="normal" text-decoration="none" x="600" y="600">UNREGISTERED</text><text fill="#eeeeee" stroke="none" font-family="Arial" font-size="24px" font-style="normal" font-weight="normal" text-decoration="none" x="800" y="0">UNREGISTERED</text><text fill="#eeeeee" stroke="none" font-family="Arial" font-size="24px" font-style="normal" font-weight="normal" text-decoration="none" x="800" y="30">UNREGISTERED</text><text fill="#eeeeee" stroke="none" font-family="Arial" font-size="24px" font-style="normal" font-weight="normal" text-decoration="none" x="800" y="60">UNREGISTERED</text><text fill="#eeeeee" stroke="none" font-family="Arial" font-size="24px" font-style="normal" font-weight="normal" text-decoration="none" x="800" y="90">UNREGISTERED</text><text fill="#eeeeee" stroke="none" font-family="Arial" font-size="24px" font-style="normal" font-weight="normal" text-decoration="none" x="800" y="120">UNREGISTERED</text><text fill="#eeeeee" stroke="none" font-family="Arial" font-size="24px" font-style="normal" font-weight="normal" text-decoration="none" x="800" y="150">UNREGISTERED</text><text fill="#eeeeee" stroke="none" font-family="Arial" font-size="24px" font-style="normal" font-weight="normal" text-decoration="none" x="800" y="180">UNREGISTERED</text><text fill="#eeeeee" stroke="none" font-family="Arial" font-size="24px" font-style="normal" font-weight="normal" text-decoration="none" x="800" y="210">UNREGISTERED</text><text fill="#eeeeee" stroke="none" font-family="Arial" font-size="24px" font-style="normal" font-weight="normal" text-decoration="none" x="800" y="240">UNREGISTERED</text><text fill="#eeeeee" stroke="none" font-family="Arial" font-size="24px" font-style="normal" font-weight="normal" text-decoration="none" x="800" y="270">UNREGISTERED</text><text fill="#eeeeee" stroke="none" font-family="Arial" font-size="24px" font-style="normal" font-weight="normal" text-decoration="none" x="800" y="300">UNREGISTERED</text><text fill="#eeeeee" stroke="none" font-family="Arial" font-size="24px" font-style="normal" font-weight="normal" text-decoration="none" x="800" y="330">UNREGISTERED</text><text fill="#eeeeee" stroke="none" font-family="Arial" font-size="24px" font-style="normal" font-weight="normal" text-decoration="none" x="800" y="360">UNREGISTERED</text><text fill="#eeeeee" stroke="none" font-family="Arial" font-size="24px" font-style="normal" font-weight="normal" text-decoration="none" x="800" y="390">UNREGISTERED</text><text fill="#eeeeee" stroke="none" font-family="Arial" font-size="24px" font-style="normal" font-weight="normal" text-decoration="none" x="800" y="420">UNREGISTERED</text><text fill="#eeeeee" stroke="none" font-family="Arial" font-size="24px" font-style="normal" font-weight="normal" text-decoration="none" x="800" y="450">UNREGISTERED</text><text fill="#eeeeee" stroke="none" font-family="Arial" font-size="24px" font-style="normal" font-weight="normal" text-decoration="none" x="800" y="480">UNREGISTERED</text><text fill="#eeeeee" stroke="none" font-family="Arial" font-size="24px" font-style="normal" font-weight="normal" text-decoration="none" x="800" y="510">UNREGISTERED</text><text fill="#eeeeee" stroke="none" font-family="Arial" font-size="24px" font-style="normal" font-weight="normal" text-decoration="none" x="800" y="540">UNREGISTERED</text><text fill="#eeeeee" stroke="none" font-family="Arial" font-size="24px" font-style="normal" font-weight="normal" text-decoration="none" x="800" y="570">UNREGISTERED</text><text fill="#eeeeee" stroke="none" font-family="Arial" font-size="24px" font-style="normal" font-weight="normal" text-decoration="none" x="800" y="600">UNREGISTERED</text><g transform="translate(-46,-70) scale(1,1)"><path fill="#C0C0C0" stroke="none" d="M 575 96.5 C 575 91.2532944 579.2532944 87 584.5 87 C 589.7467056 87 594 91.2532944 594 96.5 C 594 101.7467056 589.7467056 106 584.5 106 C 579.2532944 106 575 101.7467056 575 96.5 Z" opacity="0.2"/></g><g transform="translate(-46,-70) scale(1,1)"><path fill="#000000" stroke="none" d="M 568 89.5 C 568 84.2532944 572.2532944 80 577.5 80 C 582.7467056 80 587 84.2532944 587 89.5 C 587 94.7467056 582.7467056 99 577.5 99 C 572.2532944 99 568 94.7467056 568 89.5 Z"/></g><g transform="translate(-46,-70) scale(1,1)"><path fill="#C0C0C0" stroke="none" d="M 663 675.5 C 663 668.59644 668.59644 663 675.5 663 C 682.40356 663 688 668.59644 688 675.5 C 688 682.40356 682.40356 688 675.5 688 C 668.59644 688 663 682.40356 663 675.5 Z" opacity="0.2"/></g><g transform="translate(-46,-70) scale(1,1)"><path fill="none" stroke="#000000" d="M 656 668.5 C 656 661.59644 661.59644 656 668.5 656 C 675.40356 656 681 661.59644 681 668.5 C 681 675.40356 675.40356 681 668.5 681 C 661.59644 681 656 675.40356 656 668.5 Z" stroke-miterlimit="10"/></g><g transform="translate(-46,-70) scale(1,1)"><path fill="#000000" stroke="none" d="M 661 668.5 C 661 664.357864 664.357864 661 668.5 661 C 672.642136 661 676 664.357864 676 668.5 C 676 672.642136 672.642136 676 668.5 676 C 664.357864 676 661 672.642136 661 668.5 Z"/></g><g transform="translate(-46,-70) scale(1,1)"><path fill="#C0C0C0" stroke="none" d="M 841 191 L 947.7744140625 191 Q 957.7744140625 191 957.7744140625 201 L 957.7744140625 243 Q 957.7744140625 253 947.7744140625 253 L 841 253 Q 831 253 831 243 L 831 201 Q 831 191 841 191 Z" opacity="0.2"/></g><g transform="translate(-46,-70) scale(1,1)"><path fill="#ffffff" stroke="none" d="M 834 184 L 940.7744140625 184 Q 950.7744140625 184 950.7744140625 194 L 950.7744140625 236 Q 950.7744140625 246 940.7744140625 246 L 834 246 Q 824 246 824 236 L 824 194 Q 824 184 834 184 Z"/></g><g transform="translate(-46,-70) scale(1,1)"><path fill="none" stroke="#000000" d="M 834 184 L 940.7744140625 184 Q 950.7744140625 184 950.7744140625 194 L 950.7744140625 236 Q 950.7744140625 246 940.7744140625 246 L 834 246 Q 824 246 824 236 L 824 194 Q 824 184 834 184 Z" stroke-miterlimit="10"/></g><g transform="translate(-46,-70) scale(1,1)"><path fill="none" stroke="#000000" d="M 824 209 L 950.7744140625 209" stroke-miterlimit="10"/></g><g transform="translate(-46,-70) scale(1,1)"><g><path fill="none" stroke="none"/><text fill="#000000" stroke="none" font-family="Arial" font-size="13px" font-style="normal" font-weight="bold" text-decoration="none" x="829.9599609375" y="201.5">Cadastrando perfil</text></g></g><g transform="translate(-46,-70) scale(1,1)"><g><path fill="none" stroke="none"/><text fill="#000000" stroke="none" font-family="Arial" font-size="13px" font-style="normal" font-weight="normal" text-decoration="none" x="829" y="224.5">entry/verificaPerfil()</text></g></g><g transform="translate(-46,-70) scale(1,1)"><g><path fill="none" stroke="none"/><text fill="#000000" stroke="none" font-family="Arial" font-size="13px" font-style="normal" font-weight="normal" text-decoration="none" x="829" y="239.5">do/realizaCadastro()</text></g></g><g transform="translate(-46,-70) scale(1,1)"><path fill="#C0C0C0" stroke="none" d="M 577 519 L 660.6181640625 519 Q 670.6181640625 519 670.6181640625 529 L 670.6181640625 548 Q 670.6181640625 558 660.6181640625 558 L 577 558 Q 567 558 567 548 L 567 529 Q 567 519 577 519 Z" opacity="0.2"/></g><g transform="translate(-46,-70) scale(1,1)"><path fill="#ffffff" stroke="none" d="M 570 512 L 653.6181640625 512 Q 663.6181640625 512 663.6181640625 522 L 663.6181640625 541 Q 663.6181640625 551 653.6181640625 551 L 570 551 Q 560 551 560 541 L 560 522 Q 560 512 570 512 Z"/></g><g transform="translate(-46,-70) scale(1,1)"><path fill="none" stroke="#000000" d="M 570 512 L 653.6181640625 512 Q 663.6181640625 512 663.6181640625 522 L 663.6181640625 541 Q 663.6181640625 551 653.6181640625 551 L 570 551 Q 560 551 560 541 L 560 522 Q 560 512 570 512 Z" stroke-miterlimit="10"/></g><g transform="translate(-46,-70) scale(1,1)"><g><path fill="none" stroke="none"/><text fill="#000000" stroke="none" font-family="Arial" font-size="13px" font-style="normal" font-weight="bold" text-decoration="none" x="572.444091796875" y="529.5">Perfil logado</text></g></g><g transform="translate(-46,-70) scale(1,1)"><path fill="#C0C0C0" stroke="none" d="M 161 495 L 305.34619140625 495 Q 315.34619140625 495 315.34619140625 505 L 315.34619140625 532 Q 315.34619140625 542 305.34619140625 542 L 161 542 Q 151 542 151 532 L 151 505 Q 151 495 161 495 Z" opacity="0.2"/></g><g transform="translate(-46,-70) scale(1,1)"><path fill="#ffffff" stroke="none" d="M 154 488 L 298.34619140625 488 Q 308.34619140625 488 308.34619140625 498 L 308.34619140625 525 Q 308.34619140625 535 298.34619140625 535 L 154 535 Q 144 535 144 525 L 144 498 Q 144 488 154 488 Z"/></g><g transform="translate(-46,-70) scale(1,1)"><path fill="none" stroke="#000000" d="M 154 488 L 298.34619140625 488 Q 308.34619140625 488 308.34619140625 498 L 308.34619140625 525 Q 308.34619140625 535 298.34619140625 535 L 154 535 Q 144 535 144 525 L 144 498 Q 144 488 154 488 Z" stroke-miterlimit="10"/></g><g transform="translate(-46,-70) scale(1,1)"><path fill="none" stroke="#000000" d="M 144 513 L 308.34619140625 513" stroke-miterlimit="10"/></g><g transform="translate(-46,-70) scale(1,1)"><g><path fill="none" stroke="none"/><text fill="#000000" stroke="none" font-family="Arial" font-size="13px" font-style="normal" font-weight="bold" text-decoration="none" x="174.528564453125" y="505.5">Perfil Bloqueado</text></g></g><g transform="translate(-46,-70) scale(1,1)"><g><path fill="none" stroke="none"/><text fill="#000000" stroke="none" font-family="Arial" font-size="13px" font-style="normal" font-weight="normal" text-decoration="none" x="149" y="528.5">do/verificaDocumentacao()</text></g></g><g transform="translate(-46,-70) scale(1,1)"><path fill="none" stroke="#000000" d="M 620 552 L 663 655" stroke-miterlimit="10"/></g><g transform="translate(-46,-70) scale(1,1)"><path fill="none" stroke="#000000" d="M 655.2002227201979 647.2434882591797 L 663 655 L 662.9694066439943 644.00004254342" stroke-miterlimit="10"/></g><g transform="translate(-46,-70) scale(1,1)"><path fill="#C0C0C0" stroke="none" d="M 63 155.5 C 63 148.59644 68.59644 143 75.5 143 C 82.40356 143 88 148.59644 88 155.5 C 88 162.40356 82.40356 168 75.5 168 C 68.59644 168 63 162.40356 63 155.5 Z" opacity="0.2"/></g><g transform="translate(-46,-70) scale(1,1)"><path fill="none" stroke="#000000" d="M 56 148.5 C 56 141.59644 61.59644 136 68.5 136 C 75.40356 136 81 141.59644 81 148.5 C 81 155.40356 75.40356 161 68.5 161 C 61.59644 161 56 155.40356 56 148.5 Z" stroke-miterlimit="10"/></g><g transform="translate(-46,-70) scale(1,1)"><path fill="#000000" stroke="none" d="M 61 148.5 C 61 144.357864 64.357864 141 68.5 141 C 72.642136 141 76 144.357864 76 148.5 C 76 152.642136 72.642136 156 68.5 156 C 64.357864 156 61 152.642136 61 148.5 Z"/></g><g transform="translate(-46,-70) scale(1,1)"><path fill="#C0C0C0" stroke="none" d="M 465 207 L 590.55078125 207 Q 600.55078125 207 600.55078125 217 L 600.55078125 259 Q 600.55078125 269 590.55078125 269 L 465 269 Q 455 269 455 259 L 455 217 Q 455 207 465 207 Z" opacity="0.2"/></g><g transform="translate(-46,-70) scale(1,1)"><path fill="#ffffff" stroke="none" d="M 458 200 L 583.55078125 200 Q 593.55078125 200 593.55078125 210 L 593.55078125 252 Q 593.55078125 262 583.55078125 262 L 458 262 Q 448 262 448 252 L 448 210 Q 448 200 458 200 Z"/></g><g transform="translate(-46,-70) scale(1,1)"><path fill="none" stroke="#000000" d="M 458 200 L 583.55078125 200 Q 593.55078125 200 593.55078125 210 L 593.55078125 252 Q 593.55078125 262 583.55078125 262 L 458 262 Q 448 262 448 252 L 448 210 Q 448 200 458 200 Z" stroke-miterlimit="10"/></g><g transform="translate(-46,-70) scale(1,1)"><path fill="none" stroke="#000000" d="M 448 225 L 593.55078125 225" stroke-miterlimit="10"/></g><g transform="translate(-46,-70) scale(1,1)"><g><path fill="none" stroke="none"/><text fill="#000000" stroke="none" font-family="Arial" font-size="13px" font-style="normal" font-weight="bold" text-decoration="none" x="503.087646484375" y="217.5">Login</text></g></g><g transform="translate(-46,-70) scale(1,1)"><g><path fill="none" stroke="none"/><text fill="#000000" stroke="none" font-family="Arial" font-size="13px" font-style="normal" font-weight="normal" text-decoration="none" x="453" y="240.5">entry/verificaPerfil()</text></g></g><g transform="translate(-46,-70) scale(1,1)"><g><path fill="none" stroke="none"/><text fill="#000000" stroke="none" font-family="Arial" font-size="13px" font-style="normal" font-weight="normal" text-decoration="none" x="453" y="255.5">do/verificaCredenciais()</text></g></g><g transform="translate(-46,-70) scale(1,1)"><path fill="none" stroke="#000000" d="M 573 100 L 533 199" stroke-miterlimit="10"/></g><g transform="translate(-46,-70) scale(1,1)"><path fill="none" stroke="#000000" d="M 532.9041421780988 188.00041767711244 L 533 199 L 540.7100975348374 191.15433903337043" stroke-miterlimit="10"/></g><g transform="translate(-46,-70) scale(1,1)"><g><path fill="none" stroke="none"/><text fill="#000000" stroke="none" font-family="Arial" font-size="13px" font-style="normal" font-weight="normal" text-decoration="none" x="552.5" y="153.5"> [perfil exite]</text></g></g><g transform="translate(-46,-70) scale(1,1)"><path fill="none" stroke="#000000" d="M 555 366 L 604 511" stroke-miterlimit="10"/></g><g transform="translate(-46,-70) scale(1,1)"><path fill="none" stroke="#000000" d="M 596.7585038541298 502.7198590851757 L 604 511 L 604.7344327593713 500.0245451792665" stroke-miterlimit="10"/></g><g transform="translate(-46,-70) scale(1,1)"><g><path fill="none" stroke="none"/><text fill="#000000" stroke="none" font-family="Arial" font-size="13px" font-style="normal" font-weight="normal" text-decoration="none" x="582.5" y="442.5"> [credenciais corretas]</text></g></g><g transform="translate(-46,-70) scale(1,1)"><path fill="none" stroke="#000000" d="M 545 366 L 279 487" stroke-miterlimit="10"/></g><g transform="translate(-46,-70) scale(1,1)"><path fill="none" stroke="#000000" d="M 286.5075710880125 478.960324859894 L 279 487 L 289.99356323667956 486.6237456164679" stroke-miterlimit="10"/></g><g transform="translate(-46,-70) scale(1,1)"><g><path fill="none" stroke="none"/><text fill="#000000" stroke="none" font-family="Arial" font-size="13px" font-style="normal" font-weight="normal" text-decoration="none" x="392.5" y="448.5"> [credenciais incorretas]</text></g></g><g transform="translate(-46,-70) scale(1,1)"><path fill="#C0C0C0" stroke="none" d="M 530 367 L 593 367 Q 596 367 596 370 L 596 369 Q 596 372 593 372 L 530 372 Q 527 372 527 369 L 527 370 Q 527 367 530 367 Z" opacity="0.2"/></g><g transform="translate(-46,-70) scale(1,1)"><path fill="#000000" stroke="none" d="M 523 360 L 586 360 Q 589 360 589 363 L 589 363 Q 589 366 586 366 L 523 366 Q 520 366 520 363 L 520 363 Q 520 360 523 360 Z"/></g><g transform="translate(-46,-70) scale(1,1)"><path fill="none" stroke="#000000" d="M 528 263 L 553 359" stroke-miterlimit="10"/></g><g transform="translate(-46,-70) scale(1,1)"><path fill="none" stroke="#000000" d="M 546.3652365197289 350.2261802183507 L 553 359 L 554.5125412160444 348.1044862870185" stroke-miterlimit="10"/></g><g transform="translate(-46,-70) scale(1,1)"><path fill="#C0C0C0" stroke="none" d="M 218 263 L 281 263 Q 284 263 284 266 L 284 265 Q 284 268 281 268 L 218 268 Q 215 268 215 265 L 215 266 Q 215 263 218 263 Z" opacity="0.2"/></g><g transform="translate(-46,-70) scale(1,1)"><path fill="#000000" stroke="none" d="M 211 256 L 274 256 Q 277 256 277 259 L 277 259 Q 277 262 274 262 L 211 262 Q 208 262 208 259 L 208 259 Q 208 256 211 256 Z"/></g><g transform="translate(-46,-70) scale(1,1)"><path fill="none" stroke="#000000" d="M 228 487 L 242 262" stroke-miterlimit="10"/></g><g transform="translate(-46,-70) scale(1,1)"><path fill="none" stroke="#000000" d="M 245.57026888390348 272.40447884791115 L 242 262 L 237.1674837903975 271.8816388865375" stroke-miterlimit="10"/></g><g transform="translate(-46,-70) scale(1,1)"><path fill="none" stroke="#000000" d="M 237 255 L 82 157" stroke-miterlimit="10"/></g><g transform="translate(-46,-70) scale(1,1)"><path fill="none" stroke="#000000" d="M 92.83937409071805 158.87295737310546 L 82 157 L 88.34021406396828 165.98897578276072" stroke-miterlimit="10"/></g><g transform="translate(-46,-70) scale(1,1)"><g><path fill="none" stroke="none"/><text fill="#000000" stroke="none" font-family="Arial" font-size="13px" font-style="normal" font-weight="normal" text-decoration="none" x="124.5" y="173.5"> [documentacao incorreta]</text></g></g><g transform="translate(-46,-70) scale(1,1)"><path fill="none" stroke="#000000" d="M 273 255 L 447 238" stroke-miterlimit="10"/></g><g transform="translate(-46,-70) scale(1,1)"><path fill="none" stroke="#000000" d="M 437.2948103664898 243.1777692279211 L 447 238 L 436.4761588649615 234.7986303299256" stroke-miterlimit="10"/></g><g transform="translate(-46,-70) scale(1,1)"><g><path fill="none" stroke="none"/><text fill="#000000" stroke="none" font-family="Arial" font-size="13px" font-style="normal" font-weight="normal" text-decoration="none" x="268.5" y="236.5"> [documentacao correta]</text></g></g><g transform="translate(-46,-70) scale(1,1)"><path fill="none" stroke="#000000" d="M 588 93 L 823 189" stroke-miterlimit="10"/></g><g transform="translate(-46,-70) scale(1,1)"><path fill="none" stroke="#000000" d="M 812.0001308472492 189.0536527945495 L 823 189 L 815.1839796750696 181.2598561847808" stroke-miterlimit="10"/></g><g transform="translate(-46,-70) scale(1,1)"><g><path fill="none" stroke="none"/><text fill="#000000" stroke="none" font-family="Arial" font-size="13px" font-style="normal" font-weight="normal" text-decoration="none" x="711.5" y="131.5"> [perfil nao existe]</text></g></g><g transform="translate(-46,-70) scale(1,1)"><path fill="none" stroke="#000000" d="M 823 218 L 595 228" stroke-miterlimit="10"/></g><g transform="translate(-46,-70) scale(1,1)"><path fill="none" stroke="#000000" d="M 604.9684634812819 223.3492220196671 L 595 228 L 605.3373647733114 231.76017147793843" stroke-miterlimit="10"/></g></g></svg>